solid Exported from Blender-2.93.1
facet normal 1.000000 0.000000 0.000000
outer loop
vertex 1.040000 5.860000 2.000000
vertex 1.040000 5.860000 11.000000
vertex 1.040000 3.860000 11.000000
endloop
endfacet
facet normal 1.000000 0.000000 0.000000
outer loop
vertex 1.040000 5.860000 2.000000
vertex 1.040000 3.860000 11.000000
vertex 1.040000 3.860000 2.000000
endloop
endfacet
facet normal 0.604596 0.796532 0.000000
outer loop
vertex 2.000000 3.460000 2.000000
vertex 2.000000 3.460000 11.000000
vertex 2.830000 2.830000 11.000000
endloop
endfacet
facet normal 0.604597 0.796532 0.000000
outer loop
vertex 2.000000 3.460000 2.000000
vertex 2.830000 2.830000 11.000000
vertex 2.830000 2.830000 2.000000
endloop
endfacet
facet normal 0.796532 0.604597 0.000000
outer loop
vertex 2.830000 2.830000 2.000000
vertex 2.830000 2.830000 11.000000
vertex 3.460000 2.000000 11.000000
endloop
endfacet
facet normal 0.796532 0.604596 0.000000
outer loop
vertex 2.830000 2.830000 2.000000
vertex 3.460000 2.000000 11.000000
vertex 3.460000 2.000000 2.000000
endloop
endfacet
facet normal 0.000000 0.000000 1.000000
outer loop
vertex 5.860000 1.040000 2.000000
vertex 5.200000 3.000000 2.000000
vertex 3.460000 2.000000 2.000000
endloop
endfacet
facet normal 0.000000 0.000000 1.000000
outer loop
vertex 5.860000 1.040000 2.000000
vertex 3.460000 2.000000 2.000000
vertex 3.860000 1.040000 2.000000
endloop
endfacet
facet normal 0.000000 0.000000 1.000000
outer loop
vertex 4.000000 -0.000000 11.000000
vertex 3.860000 -1.040000 11.000000
vertex 5.860000 -1.040000 11.000000
endloop
endfacet
facet normal 0.000000 0.000000 1.000000
outer loop
vertex 4.000000 -0.000000 11.000000
vertex 5.860000 -1.040000 11.000000
vertex 6.000000 0.000000 11.000000
endloop
endfacet
facet normal 0.947712 -0.319128 0.000000
outer loop
vertex 5.200000 -3.000000 2.000000
vertex 5.200000 -3.000000 -1.000000
vertex 5.860000 -1.040000 2.000000
endloop
endfacet
facet normal 0.000000 0.000000 1.000000
outer loop
vertex 5.200000 -3.000000 2.000000
vertex 5.860000 -1.040000 2.000000
vertex 3.860000 -1.040000 2.000000
endloop
endfacet
facet normal 0.000000 0.000000 1.000000
outer loop
vertex 5.200000 -3.000000 2.000000
vertex 3.860000 -1.040000 2.000000
vertex 3.460000 -2.000000 2.000000
endloop
endfacet
facet normal -0.639428 0.315334 -0.701210
outer loop
vertex 3.000000 -0.790000 2.000000
vertex 5.200000 -3.000000 -1.000000
vertex 2.640000 -1.520000 2.000000
endloop
endfacet
facet normal 0.796532 -0.604596 0.000000
outer loop
vertex 3.460000 -2.000000 2.000000
vertex 3.460000 -2.000000 11.000000
vertex 2.830000 -2.830000 11.000000
endloop
endfacet
facet normal 0.796532 -0.604597 0.000000
outer loop
vertex 3.460000 -2.000000 2.000000
vertex 2.830000 -2.830000 11.000000
vertex 2.830000 -2.830000 2.000000
endloop
endfacet
facet normal 0.604597 -0.796532 0.000000
outer loop
vertex 2.830000 -2.830000 2.000000
vertex 2.830000 -2.830000 11.000000
vertex 2.000000 -3.460000 11.000000
endloop
endfacet
facet normal 0.604596 -0.796532 0.000000
outer loop
vertex 2.830000 -2.830000 2.000000
vertex 2.000000 -3.460000 11.000000
vertex 2.000000 -3.460000 2.000000
endloop
endfacet
facet normal -0.517443 0.517443 -0.681546
outer loop
vertex 5.200000 -3.000000 -1.000000
vertex 3.000000 -5.200000 -1.000000
vertex 2.090000 -1.500000 2.500000
endloop
endfacet
facet normal -0.408267 0.572321 -0.711173
outer loop
vertex 2.090000 -1.500000 2.500000
vertex 3.000000 -5.200000 -1.000000
vertex 1.550000 -1.500000 2.810000
endloop
endfacet
facet normal 0.000000 0.000000 1.000000
outer loop
vertex 1.040000 -3.860000 11.000000
vertex 0.000000 -4.000000 11.000000
vertex 0.000000 -6.000000 11.000000
endloop
endfacet
facet normal 0.000000 0.000000 1.000000
outer loop
vertex 1.040000 -3.860000 11.000000
vertex 0.000000 -6.000000 11.000000
vertex 1.040000 -5.860000 11.000000
endloop
endfacet
facet normal 0.639428 0.315334 -0.701210
outer loop
vertex -5.200000 -3.000000 -1.000000
vertex -3.000000 -0.790000 2.000000
vertex -2.640000 -1.520000 2.000000
endloop
endfacet
facet normal -0.604596 -0.796532 0.000000
outer loop
vertex -2.000000 -3.460000 2.000000
vertex -2.000000 -3.460000 11.000000
vertex -2.830000 -2.830000 11.000000
endloop
endfacet
facet normal -0.604597 -0.796532 0.000000
outer loop
vertex -2.000000 -3.460000 2.000000
vertex -2.830000 -2.830000 11.000000
vertex -2.830000 -2.830000 2.000000
endloop
endfacet
facet normal 0.625682 0.340444 -0.701869
outer loop
vertex -2.640000 -1.520000 2.000000
vertex -2.090000 -1.500000 2.500000
vertex -5.200000 -3.000000 -1.000000
endloop
endfacet
facet normal -0.796532 -0.604597 0.000000
outer loop
vertex -2.830000 -2.830000 2.000000
vertex -2.830000 -2.830000 11.000000
vertex -3.460000 -2.000000 11.000000
endloop
endfacet
facet normal -0.796532 -0.604596 0.000000
outer loop
vertex -2.830000 -2.830000 2.000000
vertex -3.460000 -2.000000 11.000000
vertex -3.460000 -2.000000 2.000000
endloop
endfacet
facet normal 0.510875 -0.510875 -0.691385
outer loop
vertex -2.070000 2.070000 2.000000
vertex -5.200000 3.000000 -1.000000
vertex -3.000000 5.200000 -1.000000
endloop
endfacet
facet normal 0.000000 0.000000 1.000000
outer loop
vertex -5.860000 -1.040000 2.000000
vertex -5.200000 -3.000000 2.000000
vertex -3.460000 -2.000000 2.000000
endloop
endfacet
facet normal 0.000000 0.000000 1.000000
outer loop
vertex -5.860000 -1.040000 2.000000
vertex -3.460000 -2.000000 2.000000
vertex -3.860000 -1.040000 2.000000
endloop
endfacet
facet normal 0.191673 -0.718774 -0.668300
outer loop
vertex -0.790000 3.000000 2.000000
vertex -3.000000 5.200000 -1.000000
vertex 0.000000 6.000000 -1.000000
endloop
endfacet
facet normal 0.000000 -1.000000 0.000000
outer loop
vertex -3.860000 -1.040000 2.000000
vertex -3.860000 -1.040000 11.000000
vertex -5.860000 -1.040000 11.000000
endloop
endfacet
facet normal 0.000000 -1.000000 0.000000
outer loop
vertex -3.860000 -1.040000 2.000000
vertex -5.860000 -1.040000 11.000000
vertex -5.860000 -1.040000 2.000000
endloop
endfacet
facet normal 0.000000 1.000000 0.000000
outer loop
vertex -5.860000 1.040000 2.000000
vertex -5.860000 1.040000 11.000000
vertex -3.860000 1.040000 11.000000
endloop
endfacet
facet normal 0.000000 1.000000 0.000000
outer loop
vertex -5.860000 1.040000 2.000000
vertex -3.860000 1.040000 11.000000
vertex -3.860000 1.040000 2.000000
endloop
endfacet
facet normal -0.796532 0.604596 0.000000
outer loop
vertex -3.460000 2.000000 2.000000
vertex -3.460000 2.000000 11.000000
vertex -2.830000 2.830000 11.000000
endloop
endfacet
facet normal -0.796532 0.604597 0.000000
outer loop
vertex -3.460000 2.000000 2.000000
vertex -2.830000 2.830000 11.000000
vertex -2.830000 2.830000 2.000000
endloop
endfacet
facet normal -0.604597 0.796532 0.000000
outer loop
vertex -2.830000 2.830000 2.000000
vertex -2.830000 2.830000 11.000000
vertex -2.000000 3.460000 11.000000
endloop
endfacet
facet normal -0.604596 0.796532 0.000000
outer loop
vertex -2.830000 2.830000 2.000000
vertex -2.000000 3.460000 11.000000
vertex -2.000000 3.460000 2.000000
endloop
endfacet
facet normal -0.000001 0.000000 1.000000
outer loop
vertex 0.000000 4.000000 11.000000
vertex -0.790000 3.000000 11.000000
vertex 0.000000 2.930000 11.000000
endloop
endfacet
facet normal 0.000001 0.000000 1.000000
outer loop
vertex 0.000000 4.000000 11.000000
vertex 0.000000 2.930000 11.000000
vertex 0.790000 3.000000 11.000000
endloop
endfacet
facet normal 0.000000 0.000000 1.000000
outer loop
vertex 0.000000 4.000000 11.000000
vertex 1.040000 3.860000 11.000000
vertex 1.040000 5.860000 11.000000
endloop
endfacet
facet normal 0.000000 0.000000 1.000000
outer loop
vertex 0.000000 4.000000 11.000000
vertex 1.040000 5.860000 11.000000
vertex 0.000000 6.000000 11.000000
endloop
endfacet
facet normal 0.088262 -0.996097 0.000000
outer loop
vertex 0.790000 3.000000 2.000000
vertex 0.790000 3.000000 11.000000
vertex 0.000000 2.930000 11.000000
endloop
endfacet
facet normal 0.088262 -0.996097 0.000000
outer loop
vertex 0.790000 3.000000 2.000000
vertex 0.000000 2.930000 11.000000
vertex 0.000000 2.930000 2.000000
endloop
endfacet
facet normal -0.437466 -0.899235 0.000000
outer loop
vertex 1.530000 2.640000 2.000000
vertex 1.530000 2.640000 11.000000
vertex 0.790000 3.000000 11.000000
endloop
endfacet
facet normal -0.437466 -0.899235 0.000000
outer loop
vertex 1.530000 2.640000 2.000000
vertex 0.790000 3.000000 11.000000
vertex 0.790000 3.000000 2.000000
endloop
endfacet
facet normal -0.725953 -0.687745 0.000000
outer loop
vertex 2.070000 2.070000 2.000000
vertex 2.070000 2.070000 11.000000
vertex 1.530000 2.640000 11.000000
endloop
endfacet
facet normal -0.725953 -0.687745 0.000000
outer loop
vertex 2.070000 2.070000 2.000000
vertex 1.530000 2.640000 11.000000
vertex 1.530000 2.640000 2.000000
endloop
endfacet
facet normal -0.687745 -0.725953 0.000000
outer loop
vertex 2.640000 1.530000 11.000000
vertex 2.070000 2.070000 11.000000
vertex 2.070000 2.070000 2.000000
endloop
endfacet
facet normal -0.687745 -0.725953 0.000000
outer loop
vertex 2.640000 1.530000 11.000000
vertex 2.070000 2.070000 2.000000
vertex 2.640000 1.530000 2.000000
endloop
endfacet
facet normal -0.899235 -0.437466 0.000000
outer loop
vertex 3.000000 0.790000 11.000000
vertex 2.640000 1.530000 11.000000
vertex 2.640000 1.530000 2.000000
endloop
endfacet
facet normal -0.899235 -0.437466 0.000000
outer loop
vertex 3.000000 0.790000 11.000000
vertex 2.640000 1.530000 2.000000
vertex 3.000000 0.790000 2.000000
endloop
endfacet
facet normal -0.996097 0.088261 0.000000
outer loop
vertex 2.930000 0.000000 11.000000
vertex 3.000000 0.790000 11.000000
vertex 3.000000 0.790000 2.000000
endloop
endfacet
facet normal -0.996097 0.088262 0.000000
outer loop
vertex 2.930000 0.000000 11.000000
vertex 3.000000 0.790000 2.000000
vertex 2.930000 0.000000 2.000000
endloop
endfacet
facet normal -0.996097 -0.088262 0.000000
outer loop
vertex 3.000000 -0.790000 11.000000
vertex 2.930000 0.000000 11.000000
vertex 2.930000 0.000000 2.000000
endloop
endfacet
facet normal -0.996097 -0.088261 0.000000
outer loop
vertex 3.000000 -0.790000 11.000000
vertex 2.930000 0.000000 2.000000
vertex 3.000000 -0.790000 2.000000
endloop
endfacet
facet normal -0.896871 0.442293 0.000000
outer loop
vertex 2.640000 -1.520000 11.000000
vertex 3.000000 -0.790000 11.000000
vertex 3.000000 -0.790000 2.000000
endloop
endfacet
facet normal -0.896871 0.442293 0.000000
outer loop
vertex 2.640000 -1.520000 11.000000
vertex 3.000000 -0.790000 2.000000
vertex 2.640000 -1.520000 2.000000
endloop
endfacet
facet normal 0.036340 0.999339 0.000000
outer loop
vertex 2.090000 -1.500000 2.500000
vertex 2.090000 -1.500000 11.000000
vertex 2.640000 -1.520000 11.000000
endloop
endfacet
facet normal 0.036340 0.999340 0.000000
outer loop
vertex 2.090000 -1.500000 2.500000
vertex 2.640000 -1.520000 11.000000
vertex 2.640000 -1.520000 2.000000
endloop
endfacet
facet normal -0.000000 1.000000 0.000000
outer loop
vertex 1.550000 -1.500000 11.000000
vertex 2.090000 -1.500000 11.000000
vertex 2.090000 -1.500000 2.500000
endloop
endfacet
facet normal -0.000000 1.000000 0.000000
outer loop
vertex 1.550000 -1.500000 11.000000
vertex 2.090000 -1.500000 2.500000
vertex 1.550000 -1.500000 2.810000
endloop
endfacet
facet normal -0.258415 0.966034 0.000000
outer loop
vertex 0.802339 -1.700000 11.000000
vertex 1.550000 -1.500000 11.000000
vertex 1.550000 -1.500000 2.810000
endloop
endfacet
facet normal -0.258415 0.966034 0.000000
outer loop
vertex 0.802339 -1.700000 11.000000
vertex 1.550000 -1.500000 2.810000
vertex 0.802339 -1.700000 3.000000
endloop
endfacet
facet normal 0.000000 1.000000 0.000000
outer loop
vertex -0.000000 -1.700000 11.000000
vertex 0.802339 -1.700000 11.000000
vertex 0.802339 -1.700000 3.000000
endloop
endfacet
facet normal 0.000000 1.000000 0.000000
outer loop
vertex -0.000000 -1.700000 11.000000
vertex 0.802339 -1.700000 3.000000
vertex -0.000000 -1.700000 3.000000
endloop
endfacet
facet normal 0.000000 1.000000 0.000000
outer loop
vertex -0.802339 -1.700000 11.000000
vertex -0.000000 -1.700000 11.000000
vertex -0.000000 -1.700000 3.000000
endloop
endfacet
facet normal 0.000000 1.000000 0.000000
outer loop
vertex -0.802339 -1.700000 11.000000
vertex -0.000000 -1.700000 3.000000
vertex -0.802339 -1.700000 3.000000
endloop
endfacet
facet normal 0.258415 0.966034 0.000000
outer loop
vertex -1.550000 -1.500000 11.000000
vertex -0.802339 -1.700000 11.000000
vertex -0.802339 -1.700000 3.000000
endloop
endfacet
facet normal 0.258415 0.966034 0.000000
outer loop
vertex -1.550000 -1.500000 11.000000
vertex -0.802339 -1.700000 3.000000
vertex -1.550000 -1.500000 2.810000
endloop
endfacet
facet normal 0.000000 1.000000 0.000000
outer loop
vertex -2.090000 -1.500000 11.000000
vertex -1.550000 -1.500000 11.000000
vertex -1.550000 -1.500000 2.810000
endloop
endfacet
facet normal 0.000000 1.000000 0.000000
outer loop
vertex -2.090000 -1.500000 11.000000
vertex -1.550000 -1.500000 2.810000
vertex -2.090000 -1.500000 2.500000
endloop
endfacet
facet normal -0.036340 0.999340 0.000000
outer loop
vertex -2.640000 -1.520000 2.000000
vertex -2.640000 -1.520000 11.000000
vertex -2.090000 -1.500000 11.000000
endloop
endfacet
facet normal -0.036340 0.999340 0.000000
outer loop
vertex -2.640000 -1.520000 2.000000
vertex -2.090000 -1.500000 11.000000
vertex -2.090000 -1.500000 2.500000
endloop
endfacet
facet normal 0.896871 0.442293 0.000000
outer loop
vertex -3.000000 -0.790000 2.000000
vertex -3.000000 -0.790000 11.000000
vertex -2.640000 -1.520000 11.000000
endloop
endfacet
facet normal 0.896871 0.442293 0.000000
outer loop
vertex -3.000000 -0.790000 2.000000
vertex -2.640000 -1.520000 11.000000
vertex -2.640000 -1.520000 2.000000
endloop
endfacet
facet normal 0.996097 -0.088262 0.000000
outer loop
vertex -2.930000 0.000000 2.000000
vertex -2.930000 0.000000 11.000000
vertex -3.000000 -0.790000 11.000000
endloop
endfacet
facet normal 0.996097 -0.088261 0.000000
outer loop
vertex -2.930000 0.000000 2.000000
vertex -3.000000 -0.790000 11.000000
vertex -3.000000 -0.790000 2.000000
endloop
endfacet
facet normal 0.996097 0.088261 0.000000
outer loop
vertex -3.000000 0.790000 2.000000
vertex -3.000000 0.790000 11.000000
vertex -2.930000 0.000000 11.000000
endloop
endfacet
facet normal 0.996097 0.088262 0.000000
outer loop
vertex -3.000000 0.790000 2.000000
vertex -2.930000 0.000000 11.000000
vertex -2.930000 0.000000 2.000000
endloop
endfacet
facet normal 0.899235 -0.437466 0.000000
outer loop
vertex -2.640000 1.530000 2.000000
vertex -2.640000 1.530000 11.000000
vertex -3.000000 0.790000 11.000000
endloop
endfacet
facet normal 0.899235 -0.437466 0.000000
outer loop
vertex -2.640000 1.530000 2.000000
vertex -3.000000 0.790000 11.000000
vertex -3.000000 0.790000 2.000000
endloop
endfacet
facet normal 0.687745 -0.725953 0.000000
outer loop
vertex -2.070000 2.070000 2.000000
vertex -2.070000 2.070000 11.000000
vertex -2.640000 1.530000 11.000000
endloop
endfacet
facet normal 0.687745 -0.725953 0.000000
outer loop
vertex -2.070000 2.070000 2.000000
vertex -2.640000 1.530000 11.000000
vertex -2.640000 1.530000 2.000000
endloop
endfacet
facet normal 0.725953 -0.687745 0.000000
outer loop
vertex -1.530000 2.640000 2.000000
vertex -1.530000 2.640000 11.000000
vertex -2.070000 2.070000 11.000000
endloop
endfacet
facet normal 0.725953 -0.687745 0.000000
outer loop
vertex -1.530000 2.640000 2.000000
vertex -2.070000 2.070000 11.000000
vertex -2.070000 2.070000 2.000000
endloop
endfacet
facet normal 0.437466 -0.899235 0.000000
outer loop
vertex -0.790000 3.000000 2.000000
vertex -0.790000 3.000000 11.000000
vertex -1.530000 2.640000 11.000000
endloop
endfacet
facet normal 0.437466 -0.899235 0.000000
outer loop
vertex -0.790000 3.000000 2.000000
vertex -1.530000 2.640000 11.000000
vertex -1.530000 2.640000 2.000000
endloop
endfacet
facet normal -0.088262 -0.996097 0.000000
outer loop
vertex 0.000000 2.930000 2.000000
vertex 0.000000 2.930000 11.000000
vertex -0.790000 3.000000 11.000000
endloop
endfacet
facet normal -0.088262 -0.996097 0.000000
outer loop
vertex 0.000000 2.930000 2.000000
vertex -0.790000 3.000000 11.000000
vertex -0.790000 3.000000 2.000000
endloop
endfacet
facet normal -1.000000 0.000000 0.000000
outer loop
vertex -1.040000 3.860000 2.000000
vertex -1.040000 3.860000 11.000000
vertex -1.040000 5.860000 11.000000
endloop
endfacet
facet normal -1.000000 0.000000 0.000000
outer loop
vertex -1.040000 3.860000 2.000000
vertex -1.040000 5.860000 11.000000
vertex -1.040000 5.860000 2.000000
endloop
endfacet
facet normal 0.000000 0.000000 1.000000
outer loop
vertex -1.040000 3.860000 11.000000
vertex 0.000000 4.000000 11.000000
vertex 0.000000 6.000000 11.000000
endloop
endfacet
facet normal -0.000000 0.000000 1.000000
outer loop
vertex -1.040000 3.860000 11.000000
vertex 0.000000 6.000000 11.000000
vertex -1.040000 5.860000 11.000000
endloop
endfacet
facet normal 0.000000 0.000000 1.000000
outer loop
vertex -4.000000 0.000000 11.000000
vertex -3.860000 1.040000 11.000000
vertex -5.860000 1.040000 11.000000
endloop
endfacet
facet normal 0.000001 0.000000 1.000000
outer loop
vertex -4.000000 0.000000 11.000000
vertex -5.860000 1.040000 11.000000
vertex -6.000000 0.000000 11.000000
endloop
endfacet
facet normal -0.000001 0.000000 1.000000
outer loop
vertex -3.860000 -1.040000 11.000000
vertex -4.000000 0.000000 11.000000
vertex -6.000000 0.000000 11.000000
endloop
endfacet
facet normal 0.000000 0.000000 1.000000
outer loop
vertex -3.860000 -1.040000 11.000000
vertex -6.000000 0.000000 11.000000
vertex -5.860000 -1.040000 11.000000
endloop
endfacet
facet normal 0.000000 0.000000 1.000000
outer loop
vertex 0.000000 -4.000000 11.000000
vertex -1.040000 -3.860000 11.000000
vertex -1.040000 -5.860000 11.000000
endloop
endfacet
facet normal -0.000000 0.000000 1.000000
outer loop
vertex 0.000000 -4.000000 11.000000
vertex -1.040000 -5.860000 11.000000
vertex 0.000000 -6.000000 11.000000
endloop
endfacet
facet normal -1.000000 0.000000 0.000000
outer loop
vertex -1.040000 -5.860000 2.000000
vertex -1.040000 -5.860000 11.000000
vertex -1.040000 -3.860000 11.000000
endloop
endfacet
facet normal -1.000000 0.000000 0.000000
outer loop
vertex -1.040000 -5.860000 2.000000
vertex -1.040000 -3.860000 11.000000
vertex -1.040000 -3.860000 2.000000
endloop
endfacet
facet normal 1.000000 0.000000 0.000000
outer loop
vertex 1.040000 -3.860000 2.000000
vertex 1.040000 -3.860000 11.000000
vertex 1.040000 -5.860000 11.000000
endloop
endfacet
facet normal 1.000000 0.000000 0.000000
outer loop
vertex 1.040000 -3.860000 2.000000
vertex 1.040000 -5.860000 11.000000
vertex 1.040000 -5.860000 2.000000
endloop
endfacet
facet normal 0.000000 -1.000000 0.000000
outer loop
vertex 5.860000 -1.040000 2.000000
vertex 5.860000 -1.040000 11.000000
vertex 3.860000 -1.040000 11.000000
endloop
endfacet
facet normal 0.000000 -1.000000 0.000000
outer loop
vertex 5.860000 -1.040000 2.000000
vertex 3.860000 -1.040000 11.000000
vertex 3.860000 -1.040000 2.000000
endloop
endfacet
facet normal 0.000000 1.000000 0.000000
outer loop
vertex 3.860000 1.040000 2.000000
vertex 3.860000 1.040000 11.000000
vertex 5.860000 1.040000 11.000000
endloop
endfacet
facet normal 0.000000 1.000000 0.000000
outer loop
vertex 3.860000 1.040000 2.000000
vertex 5.860000 1.040000 11.000000
vertex 5.860000 1.040000 2.000000
endloop
endfacet
facet normal 0.965291 -0.257411 -0.044189
outer loop
vertex 6.000000 0.000000 -1.000000
vertex 5.860000 -1.040000 2.000000
vertex 5.200000 -3.000000 -1.000000
endloop
endfacet
facet normal 0.000000 0.000000 1.000000
outer loop
vertex 3.860000 1.040000 11.000000
vertex 4.000000 -0.000000 11.000000
vertex 6.000000 0.000000 11.000000
endloop
endfacet
facet normal 0.000000 0.000000 1.000000
outer loop
vertex 3.860000 1.040000 11.000000
vertex 6.000000 0.000000 11.000000
vertex 5.860000 1.040000 11.000000
endloop
endfacet
facet normal 0.000000 0.681104 -0.732187
outer loop
vertex -0.000000 -1.700000 3.000000
vertex 0.000000 -6.000000 -1.000000
vertex -0.802339 -1.700000 3.000000
endloop
endfacet
facet normal 0.000000 0.681104 -0.732187
outer loop
vertex -0.000000 -1.700000 3.000000
vertex 0.802339 -1.700000 3.000000
vertex 0.000000 -6.000000 -1.000000
endloop
endfacet
facet normal -0.697570 -0.061810 -0.713846
outer loop
vertex 2.930000 0.000000 2.000000
vertex 6.000000 0.000000 -1.000000
vertex 3.000000 -0.790000 2.000000
endloop
endfacet
facet normal -0.697570 0.061810 -0.713846
outer loop
vertex 3.000000 0.790000 2.000000
vertex 6.000000 0.000000 -1.000000
vertex 2.930000 0.000000 2.000000
endloop
endfacet
facet normal -0.718774 0.191673 -0.668300
outer loop
vertex 6.000000 0.000000 -1.000000
vertex 5.200000 -3.000000 -1.000000
vertex 3.000000 -0.790000 2.000000
endloop
endfacet
facet normal 0.000000 0.000000 1.000000
outer loop
vertex -5.200000 -3.000000 2.000000
vertex -3.000000 -5.200000 2.000000
vertex -2.830000 -2.830000 2.000000
endloop
endfacet
facet normal 0.000000 0.000000 1.000000
outer loop
vertex 5.200000 3.000000 2.000000
vertex 3.000000 5.200000 2.000000
vertex 2.830000 2.830000 2.000000
endloop
endfacet
facet normal 0.528265 -0.500462 -0.685911
outer loop
vertex -1.530000 2.640000 2.000000
vertex -2.070000 2.070000 2.000000
vertex -3.000000 5.200000 -1.000000
endloop
endfacet
facet normal 0.718774 -0.191674 -0.668300
outer loop
vertex -3.000000 0.790000 2.000000
vertex -6.000000 0.000000 -0.999996
vertex -5.200000 3.000000 -1.000000
endloop
endfacet
facet normal -0.191673 -0.718774 -0.668300
outer loop
vertex 0.000000 6.000000 -1.000000
vertex 3.000000 5.200000 -1.000000
vertex 0.790000 3.000000 2.000000
endloop
endfacet
facet normal 0.408267 0.572320 -0.711174
outer loop
vertex -3.000000 -5.200000 -1.000000
vertex -2.090000 -1.500000 2.500000
vertex -1.550000 -1.500000 2.810000
endloop
endfacet
facet normal 0.344270 0.604667 -0.718231
outer loop
vertex -1.550000 -1.500000 2.810000
vertex -0.802339 -1.700000 3.000000
vertex -3.000000 -5.200000 -1.000000
endloop
endfacet
facet normal 0.718774 0.191674 -0.668300
outer loop
vertex -5.200000 -3.000000 -1.000000
vertex -6.000000 0.000000 -0.999996
vertex -3.000000 -0.790000 2.000000
endloop
endfacet
facet normal -0.344270 0.604667 -0.718231
outer loop
vertex 3.000000 -5.200000 -1.000000
vertex 0.802339 -1.700000 3.000000
vertex 1.550000 -1.500000 2.810000
endloop
endfacet
facet normal -0.183381 0.687680 -0.702472
outer loop
vertex 0.802339 -1.700000 3.000000
vertex 3.000000 -5.200000 -1.000000
vertex 0.000000 -6.000000 -1.000000
endloop
endfacet
facet normal -0.625682 0.340444 -0.701869
outer loop
vertex 2.090000 -1.500000 2.500000
vertex 2.640000 -1.520000 2.000000
vertex 5.200000 -3.000000 -1.000000
endloop
endfacet
facet normal 0.183381 0.687680 -0.702472
outer loop
vertex -0.802339 -1.700000 3.000000
vertex 0.000000 -6.000000 -1.000000
vertex -3.000000 -5.200000 -1.000000
endloop
endfacet
facet normal 0.517443 0.517443 -0.681546
outer loop
vertex -5.200000 -3.000000 -1.000000
vertex -2.090000 -1.500000 2.500000
vertex -3.000000 -5.200000 -1.000000
endloop
endfacet
facet normal 0.000000 0.000000 1.000000
outer loop
vertex 3.460000 2.000000 2.000000
vertex 5.200000 3.000000 2.000000
vertex 2.830000 2.830000 2.000000
endloop
endfacet
facet normal 0.707107 0.707107 0.000000
outer loop
vertex 5.200000 3.000000 -1.000000
vertex 3.000000 5.200000 -1.000000
vertex 3.000000 5.200000 2.000000
endloop
endfacet
facet normal 0.707107 0.707107 0.000000
outer loop
vertex 5.200000 3.000000 -1.000000
vertex 3.000000 5.200000 2.000000
vertex 5.200000 3.000000 2.000000
endloop
endfacet
facet normal 0.133412 0.991061 0.000000
outer loop
vertex 0.000000 6.000000 2.000000
vertex 1.040000 5.860000 2.000000
vertex 0.000000 6.000000 -1.000000
endloop
endfacet
facet normal 0.061810 -0.697570 -0.713846
outer loop
vertex 0.000000 6.000000 -1.000000
vertex 0.790000 3.000000 2.000000
vertex 0.000000 2.930000 2.000000
endloop
endfacet
facet normal -0.061810 -0.697570 -0.713846
outer loop
vertex 0.000000 2.930000 2.000000
vertex -0.790000 3.000000 2.000000
vertex 0.000000 6.000000 -1.000000
endloop
endfacet
facet normal 0.641698 -0.312177 -0.700549
outer loop
vertex -2.640000 1.530000 2.000000
vertex -3.000000 0.790000 2.000000
vertex -5.200000 3.000000 -1.000000
endloop
endfacet
facet normal -0.707107 0.707107 0.000000
outer loop
vertex -3.000000 5.200000 -1.000000
vertex -5.200000 3.000000 -1.000000
vertex -5.200000 3.000000 2.000000
endloop
endfacet
facet normal -0.707107 0.707107 0.000000
outer loop
vertex -3.000000 5.200000 -1.000000
vertex -5.200000 3.000000 2.000000
vertex -3.000000 5.200000 2.000000
endloop
endfacet
facet normal 0.500462 -0.528266 -0.685911
outer loop
vertex -5.200000 3.000000 -1.000000
vertex -2.070000 2.070000 2.000000
vertex -2.640000 1.530000 2.000000
endloop
endfacet
facet normal 0.000000 0.000000 1.000000
outer loop
vertex -2.830000 -2.830000 2.000000
vertex -3.460000 -2.000000 2.000000
vertex -5.200000 -3.000000 2.000000
endloop
endfacet
facet normal 0.312177 -0.641698 -0.700549
outer loop
vertex -1.530000 2.640000 2.000000
vertex -3.000000 5.200000 -1.000000
vertex -0.790000 3.000000 2.000000
endloop
endfacet
facet normal 0.697569 0.061810 -0.713847
outer loop
vertex -2.930000 0.000000 2.000000
vertex -6.000000 0.000000 -0.999996
vertex -3.000000 0.790000 2.000000
endloop
endfacet
facet normal 0.697569 -0.061810 -0.713847
outer loop
vertex -3.000000 -0.790000 2.000000
vertex -6.000000 0.000000 -0.999996
vertex -2.930000 0.000000 2.000000
endloop
endfacet
facet normal -0.707107 -0.707107 0.000000
outer loop
vertex -5.200000 -3.000000 -1.000000
vertex -3.000000 -5.200000 -1.000000
vertex -3.000000 -5.200000 2.000000
endloop
endfacet
facet normal -0.707107 -0.707107 0.000000
outer loop
vertex -5.200000 -3.000000 -1.000000
vertex -3.000000 -5.200000 2.000000
vertex -5.200000 -3.000000 2.000000
endloop
endfacet
facet normal 0.707107 -0.707107 0.000000
outer loop
vertex 3.000000 -5.200000 -1.000000
vertex 5.200000 -3.000000 -1.000000
vertex 5.200000 -3.000000 2.000000
endloop
endfacet
facet normal 0.707107 -0.707107 0.000000
outer loop
vertex 3.000000 -5.200000 -1.000000
vertex 5.200000 -3.000000 2.000000
vertex 3.000000 -5.200000 2.000000
endloop
endfacet
facet normal 0.000000 0.000000 1.000000
outer loop
vertex 3.460000 -2.000000 2.000000
vertex 2.830000 -2.830000 2.000000
vertex 5.200000 -3.000000 2.000000
endloop
endfacet
facet normal 0.319128 -0.947712 0.000000
outer loop
vertex 1.040000 -5.860000 2.000000
vertex 3.000000 -5.200000 -1.000000
vertex 3.000000 -5.200000 2.000000
endloop
endfacet
facet normal 0.257411 -0.965291 -0.044189
outer loop
vertex 1.040000 -5.860000 2.000000
vertex 0.000000 -6.000000 -1.000000
vertex 3.000000 -5.200000 -1.000000
endloop
endfacet
facet normal 0.133412 -0.991061 0.000000
outer loop
vertex 0.000000 -6.000000 -1.000000
vertex 1.040000 -5.860000 2.000000
vertex 0.000000 -6.000000 2.000000
endloop
endfacet
facet normal -0.133412 -0.991061 -0.000000
outer loop
vertex -1.040000 -5.860000 2.000000
vertex 0.000000 -6.000000 -1.000000
vertex 0.000000 -6.000000 2.000000
endloop
endfacet
facet normal -0.257411 -0.965291 -0.044189
outer loop
vertex 0.000000 -6.000000 -1.000000
vertex -1.040000 -5.860000 2.000000
vertex -3.000000 -5.200000 -1.000000
endloop
endfacet
facet normal -0.319128 -0.947712 0.000000
outer loop
vertex -3.000000 -5.200000 -1.000000
vertex -1.040000 -5.860000 2.000000
vertex -3.000000 -5.200000 2.000000
endloop
endfacet
facet normal 0.000000 0.000000 1.000000
outer loop
vertex -1.040000 -5.860000 2.000000
vertex -1.040000 -3.860000 2.000000
vertex -2.000000 -3.460000 2.000000
endloop
endfacet
facet normal 0.000000 0.000000 1.000000
outer loop
vertex -1.040000 -5.860000 2.000000
vertex -2.000000 -3.460000 2.000000
vertex -3.000000 -5.200000 2.000000
endloop
endfacet
facet normal 0.000000 0.000000 1.000000
outer loop
vertex -2.830000 -2.830000 2.000000
vertex -3.000000 -5.200000 2.000000
vertex -2.000000 -3.460000 2.000000
endloop
endfacet
facet normal -0.384616 -0.923077 0.000000
outer loop
vertex -1.040000 -3.860000 11.000000
vertex -2.000000 -3.460000 11.000000
vertex -2.000000 -3.460000 2.000000
endloop
endfacet
facet normal -0.384616 -0.923077 0.000000
outer loop
vertex -1.040000 -3.860000 11.000000
vertex -2.000000 -3.460000 2.000000
vertex -1.040000 -3.860000 2.000000
endloop
endfacet
facet normal -0.923077 -0.384616 0.000000
outer loop
vertex -3.860000 -1.040000 11.000000
vertex -3.860000 -1.040000 2.000000
vertex -3.460000 -2.000000 2.000000
endloop
endfacet
facet normal -0.923077 -0.384616 0.000000
outer loop
vertex -3.860000 -1.040000 11.000000
vertex -3.460000 -2.000000 2.000000
vertex -3.460000 -2.000000 11.000000
endloop
endfacet
facet normal -0.133412 -0.991061 0.000000
outer loop
vertex -1.040000 -5.860000 11.000000
vertex -1.040000 -5.860000 2.000000
vertex 0.000000 -6.000000 2.000000
endloop
endfacet
facet normal -0.133412 -0.991061 0.000000
outer loop
vertex -1.040000 -5.860000 11.000000
vertex 0.000000 -6.000000 2.000000
vertex 0.000000 -6.000000 11.000000
endloop
endfacet
facet normal 0.133412 -0.991061 -0.000000
outer loop
vertex 1.040000 -5.860000 11.000000
vertex 0.000000 -6.000000 11.000000
vertex 0.000000 -6.000000 2.000000
endloop
endfacet
facet normal 0.133412 -0.991061 0.000000
outer loop
vertex 1.040000 -5.860000 11.000000
vertex 0.000000 -6.000000 2.000000
vertex 1.040000 -5.860000 2.000000
endloop
endfacet
facet normal -0.947712 -0.319128 0.000000
outer loop
vertex -5.200000 -3.000000 2.000000
vertex -5.860000 -1.040000 2.000000
vertex -5.200000 -3.000000 -1.000000
endloop
endfacet
facet normal -0.965291 -0.257411 -0.044189
outer loop
vertex -5.200000 -3.000000 -1.000000
vertex -5.860000 -1.040000 2.000000
vertex -6.000000 0.000000 -0.999996
endloop
endfacet
facet normal -0.991061 -0.133412 0.000000
outer loop
vertex -6.000000 0.000000 -0.999996
vertex -5.860000 -1.040000 2.000000
vertex -6.000000 0.000001 2.000000
endloop
endfacet
facet normal -0.991061 0.133412 -0.000000
outer loop
vertex -6.000000 0.000000 -0.999996
vertex -6.000000 0.000001 2.000000
vertex -5.860000 1.040000 2.000000
endloop
endfacet
facet normal -0.965291 0.257411 -0.044189
outer loop
vertex -5.860000 1.040000 2.000000
vertex -5.200000 3.000000 -1.000000
vertex -6.000000 0.000000 -0.999996
endloop
endfacet
facet normal -0.923077 0.384616 0.000000
outer loop
vertex -3.460000 2.000000 11.000000
vertex -3.460000 2.000000 2.000000
vertex -3.860000 1.040000 2.000000
endloop
endfacet
facet normal -0.923077 0.384616 0.000000
outer loop
vertex -3.460000 2.000000 11.000000
vertex -3.860000 1.040000 2.000000
vertex -3.860000 1.040000 11.000000
endloop
endfacet
facet normal 0.000000 0.000000 1.000000
outer loop
vertex -1.040000 5.860000 2.000000
vertex -3.000000 5.200000 2.000000
vertex -2.000000 3.460000 2.000000
endloop
endfacet
facet normal 0.000000 0.000000 1.000000
outer loop
vertex -1.040000 5.860000 2.000000
vertex -2.000000 3.460000 2.000000
vertex -1.040000 3.860000 2.000000
endloop
endfacet
facet normal 0.000000 0.000000 1.000000
outer loop
vertex -2.000000 3.460000 2.000000
vertex -3.000000 5.200000 2.000000
vertex -2.830000 2.830000 2.000000
endloop
endfacet
facet normal 0.000000 0.000000 1.000000
outer loop
vertex -2.830000 2.830000 2.000000
vertex -5.200000 3.000000 2.000000
vertex -3.460000 2.000000 2.000000
endloop
endfacet
facet normal 0.000000 0.000000 1.000000
outer loop
vertex -3.000000 5.200000 2.000000
vertex -5.200000 3.000000 2.000000
vertex -2.830000 2.830000 2.000000
endloop
endfacet
facet normal 0.000000 0.000000 1.000000
outer loop
vertex -3.860000 1.040000 2.000000
vertex -3.460000 2.000000 2.000000
vertex -5.200000 3.000000 2.000000
endloop
endfacet
facet normal 0.000000 0.000000 1.000000
outer loop
vertex -3.860000 1.040000 2.000000
vertex -5.200000 3.000000 2.000000
vertex -5.860000 1.040000 2.000000
endloop
endfacet
facet normal -0.947712 0.319128 0.000000
outer loop
vertex -5.200000 3.000000 2.000000
vertex -5.200000 3.000000 -1.000000
vertex -5.860000 1.040000 2.000000
endloop
endfacet
facet normal -0.991061 0.133412 0.000000
outer loop
vertex -6.000000 0.000000 11.000000
vertex -5.860000 1.040000 11.000000
vertex -5.860000 1.040000 2.000000
endloop
endfacet
facet normal -0.991061 0.133412 0.000000
outer loop
vertex -6.000000 0.000000 11.000000
vertex -5.860000 1.040000 2.000000
vertex -6.000000 0.000001 2.000000
endloop
endfacet
facet normal -0.991061 -0.133411 -0.000000
outer loop
vertex -5.860000 -1.040000 11.000000
vertex -6.000000 0.000000 11.000000
vertex -6.000000 0.000001 2.000000
endloop
endfacet
facet normal -0.991061 -0.133412 0.000000
outer loop
vertex -5.860000 -1.040000 11.000000
vertex -6.000000 0.000001 2.000000
vertex -5.860000 -1.040000 2.000000
endloop
endfacet
facet normal -0.384616 0.923077 0.000000
outer loop
vertex -2.000000 3.460000 2.000000
vertex -2.000000 3.460000 11.000000
vertex -1.040000 3.860000 11.000000
endloop
endfacet
facet normal -0.384616 0.923077 0.000000
outer loop
vertex -2.000000 3.460000 2.000000
vertex -1.040000 3.860000 11.000000
vertex -1.040000 3.860000 2.000000
endloop
endfacet
facet normal 0.000000 0.000000 1.000000
outer loop
vertex 2.000000 -3.460000 2.000000
vertex 3.000000 -5.200000 2.000000
vertex 2.830000 -2.830000 2.000000
endloop
endfacet
facet normal 0.000000 0.000000 1.000000
outer loop
vertex 5.200000 -3.000000 2.000000
vertex 2.830000 -2.830000 2.000000
vertex 3.000000 -5.200000 2.000000
endloop
endfacet
facet normal 0.000000 0.000000 1.000000
outer loop
vertex 1.040000 -5.860000 2.000000
vertex 3.000000 -5.200000 2.000000
vertex 2.000000 -3.460000 2.000000
endloop
endfacet
facet normal 0.000000 0.000000 1.000000
outer loop
vertex 1.040000 -5.860000 2.000000
vertex 2.000000 -3.460000 2.000000
vertex 1.040000 -3.860000 2.000000
endloop
endfacet
facet normal 0.923077 -0.384616 0.000000
outer loop
vertex 3.460000 -2.000000 2.000000
vertex 3.860000 -1.040000 2.000000
vertex 3.860000 -1.040000 11.000000
endloop
endfacet
facet normal 0.923077 -0.384616 0.000000
outer loop
vertex 3.460000 -2.000000 2.000000
vertex 3.860000 -1.040000 11.000000
vertex 3.460000 -2.000000 11.000000
endloop
endfacet
facet normal 0.384616 -0.923077 0.000000
outer loop
vertex 2.000000 -3.460000 11.000000
vertex 1.040000 -3.860000 11.000000
vertex 1.040000 -3.860000 2.000000
endloop
endfacet
facet normal 0.384616 -0.923077 0.000000
outer loop
vertex 2.000000 -3.460000 11.000000
vertex 1.040000 -3.860000 2.000000
vertex 2.000000 -3.460000 2.000000
endloop
endfacet
facet normal -0.133412 0.991061 -0.000000
outer loop
vertex 0.000000 6.000000 -1.000000
vertex -1.040000 5.860000 2.000000
vertex 0.000000 6.000000 2.000000
endloop
endfacet
facet normal -0.257411 0.965291 -0.044188
outer loop
vertex -1.040000 5.860000 2.000000
vertex 0.000000 6.000000 -1.000000
vertex -3.000000 5.200000 -1.000000
endloop
endfacet
facet normal -0.319128 0.947712 0.000000
outer loop
vertex -3.000000 5.200000 2.000000
vertex -1.040000 5.860000 2.000000
vertex -3.000000 5.200000 -1.000000
endloop
endfacet
facet normal -0.133412 0.991061 0.000000
outer loop
vertex -1.040000 5.860000 2.000000
vertex -1.040000 5.860000 11.000000
vertex 0.000000 6.000000 11.000000
endloop
endfacet
facet normal -0.133412 0.991061 0.000000
outer loop
vertex -1.040000 5.860000 2.000000
vertex 0.000000 6.000000 11.000000
vertex 0.000000 6.000000 2.000000
endloop
endfacet
facet normal 0.133412 0.991061 0.000000
outer loop
vertex 0.000000 6.000000 11.000000
vertex 1.040000 5.860000 11.000000
vertex 1.040000 5.860000 2.000000
endloop
endfacet
facet normal 0.133412 0.991061 -0.000000
outer loop
vertex 0.000000 6.000000 11.000000
vertex 1.040000 5.860000 2.000000
vertex 0.000000 6.000000 2.000000
endloop
endfacet
facet normal 0.000000 0.000000 1.000000
outer loop
vertex 3.000000 5.200000 2.000000
vertex 1.040000 5.860000 2.000000
vertex 1.040000 3.860000 2.000000
endloop
endfacet
facet normal 0.000000 0.000000 1.000000
outer loop
vertex 3.000000 5.200000 2.000000
vertex 1.040000 3.860000 2.000000
vertex 2.000000 3.460000 2.000000
endloop
endfacet
facet normal 0.257411 0.965291 -0.044189
outer loop
vertex 0.000000 6.000000 -1.000000
vertex 1.040000 5.860000 2.000000
vertex 3.000000 5.200000 -1.000000
endloop
endfacet
facet normal 0.000000 0.000000 1.000000
outer loop
vertex 2.000000 3.460000 2.000000
vertex 2.830000 2.830000 2.000000
vertex 3.000000 5.200000 2.000000
endloop
endfacet
facet normal 0.965291 0.257411 -0.044189
outer loop
vertex 5.860000 1.040000 2.000000
vertex 6.000000 0.000000 -1.000000
vertex 5.200000 3.000000 -1.000000
endloop
endfacet
facet normal 0.947712 0.319128 0.000000
outer loop
vertex 5.200000 3.000000 -1.000000
vertex 5.200000 3.000000 2.000000
vertex 5.860000 1.040000 2.000000
endloop
endfacet
facet normal 0.923077 0.384616 0.000000
outer loop
vertex 3.860000 1.040000 2.000000
vertex 3.460000 2.000000 2.000000
vertex 3.460000 2.000000 11.000000
endloop
endfacet
facet normal 0.923077 0.384616 0.000000
outer loop
vertex 3.860000 1.040000 2.000000
vertex 3.460000 2.000000 11.000000
vertex 3.860000 1.040000 11.000000
endloop
endfacet
facet normal 0.384616 0.923077 0.000000
outer loop
vertex 1.040000 3.860000 11.000000
vertex 2.000000 3.460000 11.000000
vertex 2.000000 3.460000 2.000000
endloop
endfacet
facet normal 0.384616 0.923077 0.000000
outer loop
vertex 1.040000 3.860000 11.000000
vertex 2.000000 3.460000 2.000000
vertex 1.040000 3.860000 2.000000
endloop
endfacet
facet normal 0.319128 0.947712 0.000000
outer loop
vertex 3.000000 5.200000 -1.000000
vertex 1.040000 5.860000 2.000000
vertex 3.000000 5.200000 2.000000
endloop
endfacet
facet normal -0.500462 -0.528266 -0.685911
outer loop
vertex 2.070000 2.070000 2.000000
vertex 5.200000 3.000000 -1.000000
vertex 2.640000 1.530000 2.000000
endloop
endfacet
facet normal -0.641698 -0.312177 -0.700549
outer loop
vertex 2.640000 1.530000 2.000000
vertex 5.200000 3.000000 -1.000000
vertex 3.000000 0.790000 2.000000
endloop
endfacet
facet normal -0.718774 -0.191673 -0.668300
outer loop
vertex 6.000000 0.000000 -1.000000
vertex 3.000000 0.790000 2.000000
vertex 5.200000 3.000000 -1.000000
endloop
endfacet
facet normal -0.528265 -0.500462 -0.685911
outer loop
vertex 3.000000 5.200000 -1.000000
vertex 2.070000 2.070000 2.000000
vertex 1.530000 2.640000 2.000000
endloop
endfacet
facet normal -0.312177 -0.641698 -0.700549
outer loop
vertex 1.530000 2.640000 2.000000
vertex 0.790000 3.000000 2.000000
vertex 3.000000 5.200000 -1.000000
endloop
endfacet
facet normal -0.510875 -0.510875 -0.691385
outer loop
vertex 5.200000 3.000000 -1.000000
vertex 2.070000 2.070000 2.000000
vertex 3.000000 5.200000 -1.000000
endloop
endfacet
facet normal 0.991061 0.133411 0.000000
outer loop
vertex 6.000000 0.000000 -1.000000
vertex 5.860000 1.040000 2.000000
vertex 6.000000 0.000000 2.000000
endloop
endfacet
facet normal 0.991061 -0.133411 0.000000
outer loop
vertex 5.860000 -1.040000 2.000000
vertex 6.000000 0.000000 -1.000000
vertex 6.000000 0.000000 2.000000
endloop
endfacet
facet normal 0.991061 0.133411 0.000000
outer loop
vertex 5.860000 1.040000 11.000000
vertex 6.000000 0.000000 11.000000
vertex 6.000000 0.000000 2.000000
endloop
endfacet
facet normal 0.991061 0.133412 0.000000
outer loop
vertex 5.860000 1.040000 11.000000
vertex 6.000000 0.000000 2.000000
vertex 5.860000 1.040000 2.000000
endloop
endfacet
facet normal 0.991061 -0.133412 0.000000
outer loop
vertex 6.000000 0.000000 11.000000
vertex 5.860000 -1.040000 11.000000
vertex 5.860000 -1.040000 2.000000
endloop
endfacet
facet normal 0.991061 -0.133411 0.000000
outer loop
vertex 6.000000 0.000000 11.000000
vertex 5.860000 -1.040000 2.000000
vertex 6.000000 0.000000 2.000000
endloop
endfacet
facet normal 0.000000 0.000000 1.000000
outer loop
vertex -0.000000 -1.700000 11.000000
vertex 0.000000 -4.000000 11.000000
vertex 0.802339 -1.700000 11.000000
endloop
endfacet
facet normal 0.000000 0.000000 1.000000
outer loop
vertex -0.802339 -1.700000 11.000000
vertex 0.000000 -4.000000 11.000000
vertex -0.000000 -1.700000 11.000000
endloop
endfacet
facet normal 0.000001 0.000000 1.000000
outer loop
vertex -3.860000 -1.040000 11.000000
vertex -2.930000 0.000000 11.000000
vertex -4.000000 0.000000 11.000000
endloop
endfacet
facet normal -0.000001 0.000000 1.000000
outer loop
vertex -3.860000 1.040000 11.000000
vertex -4.000000 0.000000 11.000000
vertex -2.930000 0.000000 11.000000
endloop
endfacet
facet normal 0.000000 0.000000 1.000000
outer loop
vertex 2.930000 0.000000 11.000000
vertex 3.860000 -1.040000 11.000000
vertex 4.000000 -0.000000 11.000000
endloop
endfacet
facet normal 0.000000 0.000000 1.000000
outer loop
vertex 4.000000 -0.000000 11.000000
vertex 3.860000 1.040000 11.000000
vertex 2.930000 0.000000 11.000000
endloop
endfacet
facet normal 0.000000 0.000000 1.000000
outer loop
vertex 1.040000 3.860000 11.000000
vertex 0.000000 4.000000 11.000000
vertex 0.790000 3.000000 11.000000
endloop
endfacet
facet normal 0.000000 0.000000 1.000000
outer loop
vertex -1.040000 3.860000 11.000000
vertex -0.790000 3.000000 11.000000
vertex 0.000000 4.000000 11.000000
endloop
endfacet
facet normal 0.000000 0.000000 1.000000
outer loop
vertex 0.000000 -4.000000 11.000000
vertex 1.040000 -3.860000 11.000000
vertex 0.802339 -1.700000 11.000000
endloop
endfacet
facet normal 0.000000 0.000000 1.000000
outer loop
vertex 0.000000 -4.000000 11.000000
vertex -0.802339 -1.700000 11.000000
vertex -1.040000 -3.860000 11.000000
endloop
endfacet
facet normal 0.000002 0.000000 1.000000
outer loop
vertex 2.000000 3.460000 11.000000
vertex 2.070000 2.070000 11.000000
vertex 2.830000 2.830000 11.000000
endloop
endfacet
facet normal 0.000000 0.000000 1.000000
outer loop
vertex -1.040000 3.860000 11.000000
vertex -2.000000 3.460000 11.000000
vertex -0.790000 3.000000 11.000000
endloop
endfacet
facet normal 0.000000 0.000000 1.000000
outer loop
vertex 3.460000 2.000000 11.000000
vertex 2.830000 2.830000 11.000000
vertex 2.070000 2.070000 11.000000
endloop
endfacet
facet normal 0.000000 0.000000 1.000000
outer loop
vertex 2.070000 2.070000 11.000000
vertex 2.640000 1.530000 11.000000
vertex 3.460000 2.000000 11.000000
endloop
endfacet
facet normal 0.000001 0.000000 1.000000
outer loop
vertex 2.930000 0.000000 11.000000
vertex 3.860000 1.040000 11.000000
vertex 3.000000 0.790000 11.000000
endloop
endfacet
facet normal 0.000000 0.000000 1.000000
outer loop
vertex 3.000000 -0.790000 11.000000
vertex 3.860000 -1.040000 11.000000
vertex 2.930000 0.000000 11.000000
endloop
endfacet
facet normal 0.000002 0.000000 1.000000
outer loop
vertex -2.930000 0.000000 11.000000
vertex -3.000000 0.790000 11.000000
vertex -3.860000 1.040000 11.000000
endloop
endfacet
facet normal 0.000000 0.000000 1.000000
outer loop
vertex -3.000000 -0.790000 11.000000
vertex -2.930000 0.000000 11.000000
vertex -3.860000 -1.040000 11.000000
endloop
endfacet
facet normal 0.000002 0.000000 1.000000
outer loop
vertex 3.860000 1.040000 11.000000
vertex 3.460000 2.000000 11.000000
vertex 3.000000 0.790000 11.000000
endloop
endfacet
facet normal -0.000002 0.000000 1.000000
outer loop
vertex 3.000000 0.790000 11.000000
vertex 3.460000 2.000000 11.000000
vertex 2.640000 1.530000 11.000000
endloop
endfacet
facet normal -0.000002 0.000000 1.000000
outer loop
vertex 2.640000 -1.520000 11.000000
vertex 3.460000 -2.000000 11.000000
vertex 3.000000 -0.790000 11.000000
endloop
endfacet
facet normal 0.000002 0.000000 1.000000
outer loop
vertex 3.860000 -1.040000 11.000000
vertex 3.000000 -0.790000 11.000000
vertex 3.460000 -2.000000 11.000000
endloop
endfacet
facet normal 0.000000 0.000000 1.000000
outer loop
vertex 2.640000 -1.520000 11.000000
vertex 2.090000 -1.500000 11.000000
vertex 3.460000 -2.000000 11.000000
endloop
endfacet
facet normal 0.000000 0.000000 1.000000
outer loop
vertex 3.460000 -2.000000 11.000000
vertex 2.090000 -1.500000 11.000000
vertex 2.830000 -2.830000 11.000000
endloop
endfacet
facet normal 0.000000 0.000000 1.000000
outer loop
vertex 2.000000 -3.460000 11.000000
vertex 2.830000 -2.830000 11.000000
vertex 2.090000 -1.500000 11.000000
endloop
endfacet
facet normal 0.000000 0.000000 1.000000
outer loop
vertex 2.090000 -1.500000 11.000000
vertex 1.550000 -1.500000 11.000000
vertex 2.000000 -3.460000 11.000000
endloop
endfacet
facet normal -0.000002 0.000000 1.000000
outer loop
vertex 0.802339 -1.700000 11.000000
vertex 2.000000 -3.460000 11.000000
vertex 1.550000 -1.500000 11.000000
endloop
endfacet
facet normal 0.000000 0.000000 1.000000
outer loop
vertex 1.040000 -3.860000 11.000000
vertex 2.000000 -3.460000 11.000000
vertex 0.802339 -1.700000 11.000000
endloop
endfacet
facet normal 0.000000 0.000000 1.000000
outer loop
vertex 1.530000 2.640000 11.000000
vertex 2.070000 2.070000 11.000000
vertex 2.000000 3.460000 11.000000
endloop
endfacet
facet normal 0.000000 0.000000 1.000000
outer loop
vertex 2.000000 3.460000 11.000000
vertex 1.040000 3.860000 11.000000
vertex 0.790000 3.000000 11.000000
endloop
endfacet
facet normal -0.000001 0.000000 1.000000
outer loop
vertex 1.530000 2.640000 11.000000
vertex 2.000000 3.460000 11.000000
vertex 0.790000 3.000000 11.000000
endloop
endfacet
facet normal 0.000002 0.000000 1.000000
outer loop
vertex -0.790000 3.000000 11.000000
vertex -2.000000 3.460000 11.000000
vertex -1.530000 2.640000 11.000000
endloop
endfacet
facet normal 0.000000 0.000000 1.000000
outer loop
vertex -2.070000 2.070000 11.000000
vertex -1.530000 2.640000 11.000000
vertex -2.000000 3.460000 11.000000
endloop
endfacet
facet normal 0.000000 0.000000 1.000000
outer loop
vertex -1.550000 -1.500000 11.000000
vertex -2.000000 -3.460000 11.000000
vertex -0.802339 -1.700000 11.000000
endloop
endfacet
facet normal 0.000000 0.000000 1.000000
outer loop
vertex -2.000000 -3.460000 11.000000
vertex -1.040000 -3.860000 11.000000
vertex -0.802339 -1.700000 11.000000
endloop
endfacet
facet normal 0.000000 0.000000 1.000000
outer loop
vertex -1.550000 -1.500000 11.000000
vertex -2.090000 -1.500000 11.000000
vertex -2.000000 -3.460000 11.000000
endloop
endfacet
facet normal 0.000000 0.000000 1.000000
outer loop
vertex -2.000000 -3.460000 11.000000
vertex -2.090000 -1.500000 11.000000
vertex -2.830000 -2.830000 11.000000
endloop
endfacet
facet normal 0.000000 0.000000 1.000000
outer loop
vertex -3.460000 -2.000000 11.000000
vertex -2.830000 -2.830000 11.000000
vertex -2.090000 -1.500000 11.000000
endloop
endfacet
facet normal -0.000002 0.000000 1.000000
outer loop
vertex -2.000000 3.460000 11.000000
vertex -2.830000 2.830000 11.000000
vertex -2.070000 2.070000 11.000000
endloop
endfacet
facet normal 0.000000 0.000000 1.000000
outer loop
vertex -2.830000 2.830000 11.000000
vertex -3.460000 2.000000 11.000000
vertex -2.070000 2.070000 11.000000
endloop
endfacet
facet normal 0.000000 0.000000 1.000000
outer loop
vertex -2.070000 2.070000 11.000000
vertex -3.460000 2.000000 11.000000
vertex -2.640000 1.530000 11.000000
endloop
endfacet
facet normal 0.000000 0.000000 1.000000
outer loop
vertex -2.090000 -1.500000 11.000000
vertex -2.640000 -1.520000 11.000000
vertex -3.460000 -2.000000 11.000000
endloop
endfacet
facet normal 0.000001 0.000000 1.000000
outer loop
vertex -3.000000 -0.790000 11.000000
vertex -3.460000 -2.000000 11.000000
vertex -2.640000 -1.520000 11.000000
endloop
endfacet
facet normal 0.000002 0.000000 1.000000
outer loop
vertex -2.640000 1.530000 11.000000
vertex -3.460000 2.000000 11.000000
vertex -3.000000 0.790000 11.000000
endloop
endfacet
facet normal -0.000002 0.000000 1.000000
outer loop
vertex -3.860000 1.040000 11.000000
vertex -3.000000 0.790000 11.000000
vertex -3.460000 2.000000 11.000000
endloop
endfacet
facet normal -0.000002 0.000000 1.000000
outer loop
vertex -3.460000 -2.000000 11.000000
vertex -3.000000 -0.790000 11.000000
vertex -3.860000 -1.040000 11.000000
endloop
endfacet
endsolid Exported from Blender-2.93.1
