solid Exported from Blender-2.93.1
facet normal 1.000000 0.000000 0.000000
outer loop
vertex 1.040000 5.700000 2.000000
vertex 1.040000 5.700000 11.000000
vertex 1.040000 3.860000 11.000000
endloop
endfacet
facet normal 1.000000 0.000000 0.000000
outer loop
vertex 1.040000 5.700000 2.000000
vertex 1.040000 3.860000 11.000000
vertex 1.040000 3.860000 2.000000
endloop
endfacet
facet normal 0.604596 0.796532 0.000000
outer loop
vertex 2.000000 3.460000 2.000000
vertex 2.000000 3.460000 11.000000
vertex 2.830000 2.830000 11.000000
endloop
endfacet
facet normal 0.604597 0.796532 0.000000
outer loop
vertex 2.000000 3.460000 2.000000
vertex 2.830000 2.830000 11.000000
vertex 2.830000 2.830000 2.000000
endloop
endfacet
facet normal 0.796532 0.604597 0.000000
outer loop
vertex 2.830000 2.830000 2.000000
vertex 2.830000 2.830000 11.000000
vertex 3.460000 2.000000 11.000000
endloop
endfacet
facet normal 0.796532 0.604596 0.000000
outer loop
vertex 2.830000 2.830000 2.000000
vertex 3.460000 2.000000 11.000000
vertex 3.460000 2.000000 2.000000
endloop
endfacet
facet normal 0.000000 0.000000 1.000000
outer loop
vertex 5.700000 1.040000 2.000000
vertex 5.200000 3.000001 2.000000
vertex 3.460000 2.000000 2.000000
endloop
endfacet
facet normal 0.000000 0.000000 1.000000
outer loop
vertex 5.700000 1.040000 2.000000
vertex 3.460000 2.000000 2.000000
vertex 3.860000 1.040000 2.000000
endloop
endfacet
facet normal 0.000000 0.000000 1.000000
outer loop
vertex 4.000000 -0.000000 11.000000
vertex 3.860000 -1.040000 11.000000
vertex 5.700000 -1.040000 11.000000
endloop
endfacet
facet normal 0.000000 0.000000 1.000000
outer loop
vertex 4.000000 -0.000000 11.000000
vertex 5.700000 -1.040000 11.000000
vertex 6.000000 0.000000 11.000000
endloop
endfacet
facet normal 0.968968 -0.247185 -0.000000
outer loop
vertex 5.200000 -3.000001 2.000000
vertex 5.200000 -3.000000 -1.000000
vertex 5.700000 -1.040000 2.000000
endloop
endfacet
facet normal 0.000000 0.000000 1.000000
outer loop
vertex 5.200000 -3.000001 2.000000
vertex 5.700000 -1.040000 2.000000
vertex 3.860000 -1.040000 2.000000
endloop
endfacet
facet normal 0.000000 0.000000 1.000000
outer loop
vertex 5.200000 -3.000001 2.000000
vertex 3.860000 -1.040000 2.000000
vertex 3.460000 -2.000000 2.000000
endloop
endfacet
facet normal -0.655284 0.272177 -0.704644
outer loop
vertex 2.994370 -0.802339 1.900000
vertex 5.200000 -3.000000 -1.000000
vertex 2.250000 -1.300000 2.400000
endloop
endfacet
facet normal 0.796532 -0.604596 0.000000
outer loop
vertex 3.460000 -2.000000 2.000000
vertex 3.460000 -2.000000 11.000000
vertex 2.830000 -2.830000 11.000000
endloop
endfacet
facet normal 0.796532 -0.604597 0.000000
outer loop
vertex 3.460000 -2.000000 2.000000
vertex 2.830000 -2.830000 11.000000
vertex 2.830000 -2.830000 2.000000
endloop
endfacet
facet normal 0.604597 -0.796532 0.000000
outer loop
vertex 2.830000 -2.830000 2.000000
vertex 2.830000 -2.830000 11.000000
vertex 2.000000 -3.460000 11.000000
endloop
endfacet
facet normal 0.604596 -0.796532 0.000000
outer loop
vertex 2.830000 -2.830000 2.000000
vertex 2.000000 -3.460000 11.000000
vertex 2.000000 -3.460000 2.000000
endloop
endfacet
facet normal -0.517681 0.517681 -0.681185
outer loop
vertex 5.200000 -3.000000 -1.000000
vertex 3.000000 -5.200000 -1.000000
vertex 2.192031 -2.192031 1.900000
endloop
endfacet
facet normal -0.432077 0.563094 -0.704439
outer loop
vertex 2.192031 -2.192031 1.900000
vertex 3.000000 -5.200000 -1.000000
vertex 1.550000 -2.684679 1.900000
endloop
endfacet
facet normal 0.000000 0.000000 1.000000
outer loop
vertex 1.040000 -3.860000 11.000000
vertex 0.000000 -4.000000 11.000000
vertex 0.000000 -6.000000 11.000000
endloop
endfacet
facet normal 0.000001 0.000000 1.000000
outer loop
vertex 1.040000 -3.860000 11.000000
vertex 0.000000 -6.000000 11.000000
vertex 1.040000 -5.700000 11.000000
endloop
endfacet
facet normal 0.655284 0.272177 -0.704644
outer loop
vertex -5.200000 -3.000000 -1.000000
vertex -2.994370 -0.802339 1.900000
vertex -2.250000 -1.300000 2.400000
endloop
endfacet
facet normal -0.604596 -0.796532 0.000000
outer loop
vertex -2.000000 -3.460000 2.000000
vertex -2.000000 -3.460000 11.000000
vertex -2.830000 -2.830000 11.000000
endloop
endfacet
facet normal -0.604597 -0.796532 0.000000
outer loop
vertex -2.000000 -3.460000 2.000000
vertex -2.830000 -2.830000 11.000000
vertex -2.830000 -2.830000 2.000000
endloop
endfacet
facet normal 0.563360 0.431530 -0.704562
outer loop
vertex -2.250000 -1.300000 2.400000
vertex -2.192031 -2.192031 1.900000
vertex -5.200000 -3.000000 -1.000000
endloop
endfacet
facet normal -0.796532 -0.604597 0.000000
outer loop
vertex -2.830000 -2.830000 2.000000
vertex -2.830000 -2.830000 11.000000
vertex -3.460000 -2.000000 11.000000
endloop
endfacet
facet normal -0.796532 -0.604596 0.000000
outer loop
vertex -2.830000 -2.830000 2.000000
vertex -3.460000 -2.000000 11.000000
vertex -3.460000 -2.000000 2.000000
endloop
endfacet
facet normal 0.517681 -0.517681 -0.681185
outer loop
vertex -2.192031 2.192031 1.900000
vertex -5.200000 3.000000 -1.000000
vertex -3.000000 5.200000 -1.000000
endloop
endfacet
facet normal 0.000000 0.000000 1.000000
outer loop
vertex -5.700000 -1.040000 2.000000
vertex -5.200000 -2.999999 2.000000
vertex -3.460000 -2.000000 2.000000
endloop
endfacet
facet normal 0.000000 0.000000 1.000000
outer loop
vertex -5.700000 -1.040000 2.000000
vertex -3.460000 -2.000000 2.000000
vertex -3.860000 -1.040000 2.000000
endloop
endfacet
facet normal 0.188666 -0.707496 -0.681069
outer loop
vertex -0.802338 2.994370 1.900000
vertex -3.000000 5.200000 -1.000000
vertex 0.000000 6.000000 -1.000000
endloop
endfacet
facet normal 0.000000 -1.000000 0.000000
outer loop
vertex -3.860000 -1.040000 2.000000
vertex -3.860000 -1.040000 11.000000
vertex -5.700000 -1.040000 11.000000
endloop
endfacet
facet normal 0.000000 -1.000000 0.000000
outer loop
vertex -3.860000 -1.040000 2.000000
vertex -5.700000 -1.040000 11.000000
vertex -5.700000 -1.040000 2.000000
endloop
endfacet
facet normal 0.000000 1.000000 0.000000
outer loop
vertex -5.700000 1.040000 2.000000
vertex -5.700000 1.040000 11.000000
vertex -3.860000 1.040000 11.000000
endloop
endfacet
facet normal 0.000000 1.000000 0.000000
outer loop
vertex -5.700000 1.040000 2.000000
vertex -3.860000 1.040000 11.000000
vertex -3.860000 1.040000 2.000000
endloop
endfacet
facet normal -0.796532 0.604596 0.000000
outer loop
vertex -3.460000 2.000000 2.000000
vertex -3.460000 2.000000 11.000000
vertex -2.830000 2.830000 11.000000
endloop
endfacet
facet normal -0.796532 0.604597 0.000000
outer loop
vertex -3.460000 2.000000 2.000000
vertex -2.830000 2.830000 11.000000
vertex -2.830000 2.830000 2.000000
endloop
endfacet
facet normal -0.604597 0.796532 0.000000
outer loop
vertex -2.830000 2.830000 2.000000
vertex -2.830000 2.830000 11.000000
vertex -2.000000 3.460000 11.000000
endloop
endfacet
facet normal -0.604596 0.796532 0.000000
outer loop
vertex -2.830000 2.830000 2.000000
vertex -2.000000 3.460000 11.000000
vertex -2.000000 3.460000 2.000000
endloop
endfacet
facet normal 0.000000 0.000000 1.000000
outer loop
vertex -2.994370 0.802339 11.000000
vertex -3.860000 1.040000 11.000000
vertex -4.000000 0.000000 11.000000
endloop
endfacet
facet normal 0.000007 0.000000 1.000000
outer loop
vertex -4.000000 0.000000 11.000000
vertex -3.860000 -1.040000 11.000000
vertex -3.460000 -2.000000 11.000000
endloop
endfacet
facet normal 0.000000 0.000000 1.000000
outer loop
vertex -3.460000 -2.000000 11.000000
vertex -2.830000 -2.830000 11.000000
vertex -2.000000 -3.460000 11.000000
endloop
endfacet
facet normal -0.000003 0.000000 1.000000
outer loop
vertex -2.000000 -3.460000 11.000000
vertex -1.040000 -3.860000 11.000000
vertex 0.000000 -4.000000 11.000000
endloop
endfacet
facet normal 0.000003 0.000000 1.000000
outer loop
vertex 0.000000 -4.000000 11.000000
vertex 1.040000 -3.860000 11.000000
vertex 2.000000 -3.460000 11.000000
endloop
endfacet
facet normal 0.000000 0.000000 1.000000
outer loop
vertex 2.000000 -3.460000 11.000000
vertex 2.830000 -2.830000 11.000000
vertex 3.460000 -2.000000 11.000000
endloop
endfacet
facet normal 0.000007 0.000000 1.000000
outer loop
vertex 3.460000 -2.000000 11.000000
vertex 3.860000 -1.040000 11.000000
vertex 4.000000 -0.000000 11.000000
endloop
endfacet
facet normal -0.000007 0.000000 1.000000
outer loop
vertex 4.000000 -0.000000 11.000000
vertex 3.860000 1.040000 11.000000
vertex 3.460000 2.000000 11.000000
endloop
endfacet
facet normal 0.000000 0.000000 1.000000
outer loop
vertex 3.460000 2.000000 11.000000
vertex 2.830000 2.830000 11.000000
vertex 2.000000 3.460000 11.000000
endloop
endfacet
facet normal 0.000000 0.000000 1.000000
outer loop
vertex 2.000000 3.460000 11.000000
vertex 1.040000 3.860000 11.000000
vertex 0.802339 2.994370 11.000000
endloop
endfacet
facet normal 0.000000 0.000000 1.000000
outer loop
vertex 2.000000 3.460000 11.000000
vertex 0.802339 2.994370 11.000000
vertex 1.550000 2.684679 11.000000
endloop
endfacet
facet normal 0.000002 0.000000 1.000000
outer loop
vertex 4.000000 -0.000000 11.000000
vertex 3.460000 2.000000 11.000000
vertex 2.000000 3.460000 11.000000
endloop
endfacet
facet normal -0.000002 0.000000 1.000000
outer loop
vertex 2.000000 -3.460000 11.000000
vertex 3.460000 -2.000000 11.000000
vertex 4.000000 -0.000000 11.000000
endloop
endfacet
facet normal 0.000000 0.000000 1.000000
outer loop
vertex -2.000000 -3.460000 11.000000
vertex 0.000000 -4.000000 11.000000
vertex 2.000000 -3.460000 11.000000
endloop
endfacet
facet normal 0.000000 0.000000 1.000000
outer loop
vertex -4.000000 0.000000 11.000000
vertex -3.460000 -2.000000 11.000000
vertex -2.000000 -3.460000 11.000000
endloop
endfacet
facet normal 0.000000 0.000000 1.000000
outer loop
vertex -3.100000 0.000000 11.000000
vertex -2.994370 0.802339 11.000000
vertex -4.000000 0.000000 11.000000
endloop
endfacet
facet normal -0.000002 0.000000 1.000000
outer loop
vertex -2.192031 -2.192031 11.000000
vertex -2.250000 -1.300000 11.000000
vertex -2.994370 -0.802339 11.000000
endloop
endfacet
facet normal -0.000001 0.000000 1.000000
outer loop
vertex -2.994370 -0.802339 11.000000
vertex -3.100000 0.000000 11.000000
vertex -4.000000 0.000000 11.000000
endloop
endfacet
facet normal 0.000000 0.000000 1.000000
outer loop
vertex 2.000000 3.460000 11.000000
vertex 1.550000 2.684679 11.000000
vertex 2.192031 2.192031 11.000000
endloop
endfacet
facet normal 0.000002 0.000000 1.000000
outer loop
vertex 2.192031 2.192031 11.000000
vertex 2.250000 1.300000 11.000000
vertex 2.994370 0.802339 11.000000
endloop
endfacet
facet normal 0.000005 0.000000 1.000000
outer loop
vertex 2.000000 3.460000 11.000000
vertex 2.192031 2.192031 11.000000
vertex 2.994370 0.802339 11.000000
endloop
endfacet
facet normal 0.000000 0.000000 1.000000
outer loop
vertex -2.994370 -0.802339 11.000000
vertex -4.000000 0.000000 11.000000
vertex -2.000000 -3.460000 11.000000
endloop
endfacet
facet normal 0.000000 0.000000 1.000000
outer loop
vertex -2.192031 -2.192031 11.000000
vertex -2.994370 -0.802339 11.000000
vertex -2.000000 -3.460000 11.000000
endloop
endfacet
facet normal -0.000004 0.000000 1.000000
outer loop
vertex 4.000000 -0.000000 11.000000
vertex 2.000000 3.460000 11.000000
vertex 2.994370 0.802339 11.000000
endloop
endfacet
facet normal -0.000003 0.000000 1.000000
outer loop
vertex 4.000000 -0.000000 11.000000
vertex 2.994370 0.802339 11.000000
vertex 3.100000 -0.000000 11.000000
endloop
endfacet
facet normal 0.000000 0.000000 1.000000
outer loop
vertex -1.550000 -2.684679 11.000000
vertex -2.192031 -2.192031 11.000000
vertex -2.000000 -3.460000 11.000000
endloop
endfacet
facet normal 0.000000 0.000000 1.000000
outer loop
vertex 0.802339 -2.994370 11.000000
vertex -0.000000 -2.600000 11.000000
vertex -0.802339 -2.994370 11.000000
endloop
endfacet
facet normal 0.000000 0.000000 1.000000
outer loop
vertex -0.802339 -2.994370 11.000000
vertex -1.550000 -2.684679 11.000000
vertex -2.000000 -3.460000 11.000000
endloop
endfacet
facet normal 0.000000 0.000000 1.000000
outer loop
vertex 4.000000 -0.000000 11.000000
vertex 3.100000 -0.000000 11.000000
vertex 2.994370 -0.802339 11.000000
endloop
endfacet
facet normal 0.000003 0.000000 1.000000
outer loop
vertex 2.994370 -0.802339 11.000000
vertex 2.250000 -1.300000 11.000000
vertex 2.192031 -2.192031 11.000000
endloop
endfacet
facet normal -0.000003 0.000000 1.000000
outer loop
vertex 4.000000 -0.000000 11.000000
vertex 2.994370 -0.802339 11.000000
vertex 2.192031 -2.192031 11.000000
endloop
endfacet
facet normal 0.000000 0.000000 1.000000
outer loop
vertex -0.802339 -2.994370 11.000000
vertex -2.000000 -3.460000 11.000000
vertex 2.000000 -3.460000 11.000000
endloop
endfacet
facet normal 0.000000 0.000000 1.000000
outer loop
vertex 0.802339 -2.994370 11.000000
vertex -0.802339 -2.994370 11.000000
vertex 2.000000 -3.460000 11.000000
endloop
endfacet
facet normal 0.000002 0.000000 1.000000
outer loop
vertex 2.000000 -3.460000 11.000000
vertex 4.000000 -0.000000 11.000000
vertex 2.192031 -2.192031 11.000000
endloop
endfacet
facet normal 0.000000 0.000000 1.000000
outer loop
vertex 1.550000 -2.684679 11.000000
vertex 0.802339 -2.994370 11.000000
vertex 2.000000 -3.460000 11.000000
endloop
endfacet
facet normal 0.000000 0.000000 1.000000
outer loop
vertex 2.000000 -3.460000 11.000000
vertex 2.192031 -2.192031 11.000000
vertex 1.550000 -2.684679 11.000000
endloop
endfacet
facet normal 0.000000 0.000000 1.000000
outer loop
vertex 0.000000 2.600000 11.000000
vertex 0.802339 2.994370 11.000000
vertex 1.040000 3.860000 11.000000
endloop
endfacet
facet normal 0.000000 0.000000 1.000000
outer loop
vertex 1.040000 3.860000 11.000000
vertex 0.000000 4.000000 11.000000
vertex -1.040000 3.860000 11.000000
endloop
endfacet
facet normal 0.000000 0.000000 1.000000
outer loop
vertex -1.040000 3.860000 11.000000
vertex -2.000000 3.460000 11.000000
vertex -2.830000 2.830000 11.000000
endloop
endfacet
facet normal 0.000007 0.000000 1.000000
outer loop
vertex -2.830000 2.830000 11.000000
vertex -3.460000 2.000000 11.000000
vertex -3.860000 1.040000 11.000000
endloop
endfacet
facet normal 0.000000 0.000000 1.000000
outer loop
vertex -3.860000 1.040000 11.000000
vertex -2.994370 0.802339 11.000000
vertex -2.250000 1.300000 11.000000
endloop
endfacet
facet normal 0.000000 0.000000 1.000000
outer loop
vertex -3.860000 1.040000 11.000000
vertex -2.250000 1.300000 11.000000
vertex -2.192031 2.192031 11.000000
endloop
endfacet
facet normal -0.000002 0.000000 1.000000
outer loop
vertex -1.040000 3.860000 11.000000
vertex -2.830000 2.830000 11.000000
vertex -3.860000 1.040000 11.000000
endloop
endfacet
facet normal 0.000000 0.000000 1.000000
outer loop
vertex 0.000000 2.600000 11.000000
vertex 1.040000 3.860000 11.000000
vertex -1.040000 3.860000 11.000000
endloop
endfacet
facet normal 0.000000 0.000000 1.000000
outer loop
vertex -0.802338 2.994370 11.000000
vertex 0.000000 2.600000 11.000000
vertex -1.040000 3.860000 11.000000
endloop
endfacet
facet normal 0.000000 0.000000 1.000000
outer loop
vertex -1.040000 3.860000 11.000000
vertex -3.860000 1.040000 11.000000
vertex -2.192031 2.192031 11.000000
endloop
endfacet
facet normal 0.000000 0.000000 1.000000
outer loop
vertex -1.550001 2.684679 11.000000
vertex -0.802338 2.994370 11.000000
vertex -1.040000 3.860000 11.000000
endloop
endfacet
facet normal 0.000002 0.000000 1.000000
outer loop
vertex -1.040000 3.860000 11.000000
vertex -2.192031 2.192031 11.000000
vertex -1.550001 2.684679 11.000000
endloop
endfacet
facet normal 0.000000 0.000000 1.000000
outer loop
vertex 0.000000 4.000000 11.000000
vertex 1.040000 3.860000 11.000000
vertex 1.040000 5.700000 11.000000
endloop
endfacet
facet normal 0.000001 0.000000 1.000000
outer loop
vertex 0.000000 4.000000 11.000000
vertex 1.040000 5.700000 11.000000
vertex 0.000000 6.000000 11.000000
endloop
endfacet
facet normal 0.441119 -0.897449 0.000000
outer loop
vertex 0.802339 2.994370 1.900000
vertex 0.802339 2.994370 11.000000
vertex 0.000000 2.600000 11.000000
endloop
endfacet
facet normal 0.441119 -0.897449 0.000000
outer loop
vertex 0.802339 2.994370 1.900000
vertex 0.000000 2.600000 11.000000
vertex 0.000000 2.600000 2.400000
endloop
endfacet
facet normal -0.382684 -0.923880 0.000000
outer loop
vertex 1.550000 2.684679 1.900000
vertex 1.550000 2.684679 11.000000
vertex 0.802339 2.994370 11.000000
endloop
endfacet
facet normal -0.382683 -0.923879 0.000000
outer loop
vertex 1.550000 2.684679 1.900000
vertex 0.802339 2.994370 11.000000
vertex 0.802339 2.994370 1.900000
endloop
endfacet
facet normal -0.608762 -0.793353 0.000000
outer loop
vertex 2.192031 2.192031 1.900000
vertex 2.192031 2.192031 11.000000
vertex 1.550000 2.684679 11.000000
endloop
endfacet
facet normal -0.608762 -0.793353 0.000000
outer loop
vertex 2.192031 2.192031 1.900000
vertex 1.550000 2.684679 11.000000
vertex 1.550000 2.684679 1.900000
endloop
endfacet
facet normal -0.997895 -0.064849 0.000000
outer loop
vertex 2.250000 1.300000 11.000000
vertex 2.192031 2.192031 11.000000
vertex 2.192031 2.192031 1.900000
endloop
endfacet
facet normal -0.997895 -0.064849 0.000000
outer loop
vertex 2.250000 1.300000 11.000000
vertex 2.192031 2.192031 1.900000
vertex 2.250000 1.300000 2.400000
endloop
endfacet
facet normal -0.555793 -0.831321 0.000000
outer loop
vertex 2.994370 0.802339 11.000000
vertex 2.250000 1.300000 11.000000
vertex 2.250000 1.300000 2.400000
endloop
endfacet
facet normal -0.555793 -0.831321 0.000000
outer loop
vertex 2.994370 0.802339 11.000000
vertex 2.250000 1.300000 2.400000
vertex 2.994370 0.802339 1.900000
endloop
endfacet
facet normal -0.991445 -0.130525 0.000000
outer loop
vertex 3.100000 -0.000000 11.000000
vertex 2.994370 0.802339 11.000000
vertex 2.994370 0.802339 1.900000
endloop
endfacet
facet normal -0.991445 -0.130526 0.000000
outer loop
vertex 3.100000 -0.000000 11.000000
vertex 2.994370 0.802339 1.900000
vertex 3.100000 -0.000000 1.900000
endloop
endfacet
facet normal -0.991445 0.130527 0.000000
outer loop
vertex 2.994370 -0.802339 11.000000
vertex 3.100000 -0.000000 11.000000
vertex 3.100000 -0.000000 1.900000
endloop
endfacet
facet normal -0.991445 0.130526 0.000000
outer loop
vertex 2.994370 -0.802339 11.000000
vertex 3.100000 -0.000000 1.900000
vertex 2.994370 -0.802339 1.900000
endloop
endfacet
facet normal -0.555793 0.831320 0.000000
outer loop
vertex 2.250000 -1.300000 11.000000
vertex 2.994370 -0.802339 11.000000
vertex 2.994370 -0.802339 1.900000
endloop
endfacet
facet normal -0.555793 0.831321 0.000000
outer loop
vertex 2.250000 -1.300000 11.000000
vertex 2.994370 -0.802339 1.900000
vertex 2.250000 -1.300000 2.400000
endloop
endfacet
facet normal -0.997895 0.064849 0.000000
outer loop
vertex 2.192031 -2.192031 1.900000
vertex 2.192031 -2.192031 11.000000
vertex 2.250000 -1.300000 11.000000
endloop
endfacet
facet normal -0.997895 0.064849 0.000000
outer loop
vertex 2.192031 -2.192031 1.900000
vertex 2.250000 -1.300000 11.000000
vertex 2.250000 -1.300000 2.400000
endloop
endfacet
facet normal -0.608762 0.793353 0.000000
outer loop
vertex 1.550000 -2.684679 11.000000
vertex 2.192031 -2.192031 11.000000
vertex 2.192031 -2.192031 1.900000
endloop
endfacet
facet normal -0.608762 0.793353 0.000000
outer loop
vertex 1.550000 -2.684679 11.000000
vertex 2.192031 -2.192031 1.900000
vertex 1.550000 -2.684679 1.900000
endloop
endfacet
facet normal -0.382684 0.923880 0.000000
outer loop
vertex 0.802339 -2.994370 11.000000
vertex 1.550000 -2.684679 11.000000
vertex 1.550000 -2.684679 1.900000
endloop
endfacet
facet normal -0.382684 0.923880 0.000000
outer loop
vertex 0.802339 -2.994370 11.000000
vertex 1.550000 -2.684679 1.900000
vertex 0.802339 -2.994370 1.900000
endloop
endfacet
facet normal 0.441119 0.897449 0.000000
outer loop
vertex -0.000000 -2.600000 11.000000
vertex 0.802339 -2.994370 11.000000
vertex 0.802339 -2.994370 1.900000
endloop
endfacet
facet normal 0.441119 0.897449 0.000000
outer loop
vertex -0.000000 -2.600000 11.000000
vertex 0.802339 -2.994370 1.900000
vertex -0.000000 -2.600000 2.400000
endloop
endfacet
facet normal -0.441119 0.897448 0.000000
outer loop
vertex -0.802339 -2.994370 11.000000
vertex -0.000000 -2.600000 11.000000
vertex -0.000000 -2.600000 2.400000
endloop
endfacet
facet normal -0.441119 0.897449 0.000000
outer loop
vertex -0.802339 -2.994370 11.000000
vertex -0.000000 -2.600000 2.400000
vertex -0.802339 -2.994370 1.900000
endloop
endfacet
facet normal 0.382684 0.923880 0.000000
outer loop
vertex -1.550000 -2.684679 11.000000
vertex -0.802339 -2.994370 11.000000
vertex -0.802339 -2.994370 1.900000
endloop
endfacet
facet normal 0.382684 0.923879 0.000000
outer loop
vertex -1.550000 -2.684679 11.000000
vertex -0.802339 -2.994370 1.900000
vertex -1.550000 -2.684679 1.900000
endloop
endfacet
facet normal 0.608761 0.793353 0.000000
outer loop
vertex -2.192031 -2.192031 11.000000
vertex -1.550000 -2.684679 11.000000
vertex -1.550000 -2.684679 1.900000
endloop
endfacet
facet normal 0.608762 0.793353 0.000000
outer loop
vertex -2.192031 -2.192031 11.000000
vertex -1.550000 -2.684679 1.900000
vertex -2.192031 -2.192031 1.900000
endloop
endfacet
facet normal 0.997895 0.064849 0.000000
outer loop
vertex -2.250000 -1.300000 2.400000
vertex -2.250000 -1.300000 11.000000
vertex -2.192031 -2.192031 11.000000
endloop
endfacet
facet normal 0.997895 0.064849 0.000000
outer loop
vertex -2.250000 -1.300000 2.400000
vertex -2.192031 -2.192031 11.000000
vertex -2.192031 -2.192031 1.900000
endloop
endfacet
facet normal 0.555793 0.831320 0.000000
outer loop
vertex -2.994370 -0.802339 1.900000
vertex -2.994370 -0.802339 11.000000
vertex -2.250000 -1.300000 11.000000
endloop
endfacet
facet normal 0.555793 0.831321 0.000000
outer loop
vertex -2.994370 -0.802339 1.900000
vertex -2.250000 -1.300000 11.000000
vertex -2.250000 -1.300000 2.400000
endloop
endfacet
facet normal 0.991445 0.130527 0.000000
outer loop
vertex -3.100000 0.000000 1.900000
vertex -3.100000 0.000000 11.000000
vertex -2.994370 -0.802339 11.000000
endloop
endfacet
facet normal 0.991445 0.130526 0.000000
outer loop
vertex -3.100000 0.000000 1.900000
vertex -2.994370 -0.802339 11.000000
vertex -2.994370 -0.802339 1.900000
endloop
endfacet
facet normal 0.991445 -0.130526 0.000000
outer loop
vertex -2.994370 0.802339 1.900000
vertex -2.994370 0.802339 11.000000
vertex -3.100000 0.000000 11.000000
endloop
endfacet
facet normal 0.991445 -0.130527 0.000000
outer loop
vertex -2.994370 0.802339 1.900000
vertex -3.100000 0.000000 11.000000
vertex -3.100000 0.000000 1.900000
endloop
endfacet
facet normal 0.555793 -0.831321 0.000000
outer loop
vertex -2.250000 1.300000 2.400000
vertex -2.250000 1.300000 11.000000
vertex -2.994370 0.802339 11.000000
endloop
endfacet
facet normal 0.555793 -0.831320 0.000000
outer loop
vertex -2.250000 1.300000 2.400000
vertex -2.994370 0.802339 11.000000
vertex -2.994370 0.802339 1.900000
endloop
endfacet
facet normal 0.997895 -0.064848 0.000000
outer loop
vertex -2.192031 2.192031 1.900000
vertex -2.192031 2.192031 11.000000
vertex -2.250000 1.300000 11.000000
endloop
endfacet
facet normal 0.997895 -0.064848 0.000000
outer loop
vertex -2.192031 2.192031 1.900000
vertex -2.250000 1.300000 11.000000
vertex -2.250000 1.300000 2.400000
endloop
endfacet
facet normal 0.608761 -0.793353 0.000000
outer loop
vertex -1.550001 2.684679 1.900000
vertex -1.550001 2.684679 11.000000
vertex -2.192031 2.192031 11.000000
endloop
endfacet
facet normal 0.608762 -0.793353 0.000000
outer loop
vertex -1.550001 2.684679 1.900000
vertex -2.192031 2.192031 11.000000
vertex -2.192031 2.192031 1.900000
endloop
endfacet
facet normal 0.382683 -0.923880 0.000000
outer loop
vertex -0.802338 2.994370 1.900000
vertex -0.802338 2.994370 11.000000
vertex -1.550001 2.684679 11.000000
endloop
endfacet
facet normal 0.382683 -0.923880 0.000000
outer loop
vertex -0.802338 2.994370 1.900000
vertex -1.550001 2.684679 11.000000
vertex -1.550001 2.684679 1.900000
endloop
endfacet
facet normal -0.441119 -0.897448 0.000000
outer loop
vertex 0.000000 2.600000 2.400000
vertex 0.000000 2.600000 11.000000
vertex -0.802338 2.994370 11.000000
endloop
endfacet
facet normal -0.441119 -0.897448 0.000000
outer loop
vertex 0.000000 2.600000 2.400000
vertex -0.802338 2.994370 11.000000
vertex -0.802338 2.994370 1.900000
endloop
endfacet
facet normal -1.000000 0.000000 0.000000
outer loop
vertex -1.040000 3.860000 2.000000
vertex -1.040000 3.860000 11.000000
vertex -1.040000 5.700000 11.000000
endloop
endfacet
facet normal -1.000000 0.000000 0.000000
outer loop
vertex -1.040000 3.860000 2.000000
vertex -1.040000 5.700000 11.000000
vertex -1.040000 5.700000 2.000000
endloop
endfacet
facet normal 0.000000 0.000000 1.000000
outer loop
vertex -1.040000 3.860000 11.000000
vertex 0.000000 4.000000 11.000000
vertex 0.000000 6.000000 11.000000
endloop
endfacet
facet normal -0.000001 0.000000 1.000000
outer loop
vertex -1.040000 3.860000 11.000000
vertex 0.000000 6.000000 11.000000
vertex -1.040000 5.700000 11.000000
endloop
endfacet
facet normal 0.000000 0.000000 1.000000
outer loop
vertex -4.000000 0.000000 11.000000
vertex -3.860000 1.040000 11.000000
vertex -5.700000 1.040000 11.000000
endloop
endfacet
facet normal 0.000001 0.000000 1.000000
outer loop
vertex -4.000000 0.000000 11.000000
vertex -5.700000 1.040000 11.000000
vertex -6.000000 0.000000 11.000000
endloop
endfacet
facet normal -0.000001 0.000000 1.000000
outer loop
vertex -3.860000 -1.040000 11.000000
vertex -4.000000 0.000000 11.000000
vertex -6.000000 0.000000 11.000000
endloop
endfacet
facet normal 0.000000 0.000000 1.000000
outer loop
vertex -3.860000 -1.040000 11.000000
vertex -6.000000 0.000000 11.000000
vertex -5.700000 -1.040000 11.000000
endloop
endfacet
facet normal 0.000000 0.000000 1.000000
outer loop
vertex 0.000000 -4.000000 11.000000
vertex -1.040000 -3.860000 11.000000
vertex -1.040000 -5.700000 11.000000
endloop
endfacet
facet normal -0.000001 0.000000 1.000000
outer loop
vertex 0.000000 -4.000000 11.000000
vertex -1.040000 -5.700000 11.000000
vertex 0.000000 -6.000000 11.000000
endloop
endfacet
facet normal -1.000000 0.000000 0.000000
outer loop
vertex -1.040000 -5.700000 2.000000
vertex -1.040000 -5.700000 11.000000
vertex -1.040000 -3.860000 11.000000
endloop
endfacet
facet normal -1.000000 0.000000 0.000000
outer loop
vertex -1.040000 -5.700000 2.000000
vertex -1.040000 -3.860000 11.000000
vertex -1.040000 -3.860000 2.000000
endloop
endfacet
facet normal 1.000000 0.000000 0.000000
outer loop
vertex 1.040000 -3.860000 2.000000
vertex 1.040000 -3.860000 11.000000
vertex 1.040000 -5.700000 11.000000
endloop
endfacet
facet normal 1.000000 0.000000 0.000000
outer loop
vertex 1.040000 -3.860000 2.000000
vertex 1.040000 -5.700000 11.000000
vertex 1.040000 -5.700000 2.000000
endloop
endfacet
facet normal 0.000000 -1.000000 0.000000
outer loop
vertex 5.700000 -1.040000 2.000000
vertex 5.700000 -1.040000 11.000000
vertex 3.860000 -1.040000 11.000000
endloop
endfacet
facet normal 0.000000 -1.000000 0.000000
outer loop
vertex 5.700000 -1.040000 2.000000
vertex 3.860000 -1.040000 11.000000
vertex 3.860000 -1.040000 2.000000
endloop
endfacet
facet normal 0.000000 1.000000 0.000000
outer loop
vertex 3.860000 1.040000 2.000000
vertex 3.860000 1.040000 11.000000
vertex 5.700000 1.040000 11.000000
endloop
endfacet
facet normal 0.000000 1.000000 0.000000
outer loop
vertex 3.860000 1.040000 2.000000
vertex 5.700000 1.040000 11.000000
vertex 5.700000 1.040000 2.000000
endloop
endfacet
facet normal 0.966209 -0.257656 0.007300
outer loop
vertex 6.000000 0.000000 -1.000000
vertex 5.700000 -1.040000 2.000000
vertex 5.200000 -3.000000 -1.000000
endloop
endfacet
facet normal 0.000000 0.000000 1.000000
outer loop
vertex 3.860000 1.040000 11.000000
vertex 4.000000 -0.000000 11.000000
vertex 6.000000 0.000000 11.000000
endloop
endfacet
facet normal 0.000000 0.000000 1.000000
outer loop
vertex 3.860000 1.040000 11.000000
vertex 6.000000 0.000000 11.000000
vertex 5.700000 1.040000 11.000000
endloop
endfacet
facet normal 0.092691 0.704063 -0.704063
outer loop
vertex -0.000000 -2.600000 2.400000
vertex 0.000000 -6.000000 -1.000000
vertex -0.802339 -2.994370 1.900000
endloop
endfacet
facet normal -0.092691 0.704063 -0.704063
outer loop
vertex -0.000000 -2.600000 2.400000
vertex 0.802339 -2.994370 1.900000
vertex 0.000000 -6.000000 -1.000000
endloop
endfacet
facet normal -0.704063 0.092691 -0.704063
outer loop
vertex 3.100000 -0.000000 1.900000
vertex 6.000000 0.000000 -1.000000
vertex 2.994370 -0.802339 1.900000
endloop
endfacet
facet normal -0.704063 -0.092691 -0.704063
outer loop
vertex 2.994370 0.802339 1.900000
vertex 6.000000 0.000000 -1.000000
vertex 3.100000 -0.000000 1.900000
endloop
endfacet
facet normal -0.707496 0.188666 -0.681068
outer loop
vertex 6.000000 0.000000 -1.000000
vertex 5.200000 -3.000000 -1.000000
vertex 2.994370 -0.802339 1.900000
endloop
endfacet
facet normal 0.000000 0.000000 1.000000
outer loop
vertex -5.200000 -2.999999 2.000000
vertex -2.999999 -5.200000 2.000000
vertex -2.830000 -2.830000 2.000000
endloop
endfacet
facet normal 0.000000 0.000000 1.000000
outer loop
vertex 5.200000 3.000001 2.000000
vertex 3.000000 5.200000 2.000000
vertex 2.830000 2.830000 2.000000
endloop
endfacet
facet normal 0.432077 -0.563094 -0.704439
outer loop
vertex -1.550001 2.684679 1.900000
vertex -2.192031 2.192031 1.900000
vertex -3.000000 5.200000 -1.000000
endloop
endfacet
facet normal 0.707496 -0.188666 -0.681069
outer loop
vertex -2.994370 0.802339 1.900000
vertex -6.000000 0.000000 -0.999996
vertex -5.200000 3.000000 -1.000000
endloop
endfacet
facet normal -0.188666 -0.707496 -0.681068
outer loop
vertex 0.000000 6.000000 -1.000000
vertex 3.000000 5.200000 -1.000000
vertex 0.802339 2.994370 1.900000
endloop
endfacet
facet normal 0.432077 0.563094 -0.704439
outer loop
vertex -3.000000 -5.200000 -1.000000
vertex -2.192031 -2.192031 1.900000
vertex -1.550000 -2.684679 1.900000
endloop
endfacet
facet normal 0.271592 0.655680 -0.704501
outer loop
vertex -1.550000 -2.684679 1.900000
vertex -0.802339 -2.994370 1.900000
vertex -3.000000 -5.200000 -1.000000
endloop
endfacet
facet normal 0.707496 0.188666 -0.681069
outer loop
vertex -5.200000 -3.000000 -1.000000
vertex -6.000000 0.000000 -0.999996
vertex -2.994370 -0.802339 1.900000
endloop
endfacet
facet normal -0.271592 0.655680 -0.704501
outer loop
vertex 3.000000 -5.200000 -1.000000
vertex 0.802339 -2.994370 1.900000
vertex 1.550000 -2.684679 1.900000
endloop
endfacet
facet normal -0.188666 0.707497 -0.681068
outer loop
vertex 0.802339 -2.994370 1.900000
vertex 3.000000 -5.200000 -1.000000
vertex 0.000000 -6.000000 -1.000000
endloop
endfacet
facet normal -0.563359 0.431531 -0.704562
outer loop
vertex 2.192031 -2.192031 1.900000
vertex 2.250000 -1.300000 2.400000
vertex 5.200000 -3.000000 -1.000000
endloop
endfacet
facet normal 0.188666 0.707496 -0.681068
outer loop
vertex -0.802339 -2.994370 1.900000
vertex 0.000000 -6.000000 -1.000000
vertex -3.000000 -5.200000 -1.000000
endloop
endfacet
facet normal 0.517681 0.517681 -0.681185
outer loop
vertex -5.200000 -3.000000 -1.000000
vertex -2.192031 -2.192031 1.900000
vertex -3.000000 -5.200000 -1.000000
endloop
endfacet
facet normal 0.000000 0.000000 1.000000
outer loop
vertex 3.460000 2.000000 2.000000
vertex 5.200000 3.000001 2.000000
vertex 2.830000 2.830000 2.000000
endloop
endfacet
facet normal 0.707107 0.707107 -0.000000
outer loop
vertex 5.200000 3.000000 -1.000000
vertex 3.000000 5.200000 -1.000000
vertex 3.000000 5.200000 2.000000
endloop
endfacet
facet normal 0.707107 0.707107 -0.000000
outer loop
vertex 5.200000 3.000000 -1.000000
vertex 3.000000 5.200000 2.000000
vertex 5.200000 3.000001 2.000000
endloop
endfacet
facet normal 0.277161 0.960823 0.000000
outer loop
vertex 0.000000 6.000000 2.000000
vertex 1.040000 5.700000 2.000000
vertex 0.000000 6.000000 -1.000000
endloop
endfacet
facet normal -0.092691 -0.704063 -0.704063
outer loop
vertex 0.000000 6.000000 -1.000000
vertex 0.802339 2.994370 1.900000
vertex 0.000000 2.600000 2.400000
endloop
endfacet
facet normal 0.092691 -0.704063 -0.704063
outer loop
vertex 0.000000 2.600000 2.400000
vertex -0.802338 2.994370 1.900000
vertex 0.000000 6.000000 -1.000000
endloop
endfacet
facet normal 0.655284 -0.272177 -0.704644
outer loop
vertex -2.250000 1.300000 2.400000
vertex -2.994370 0.802339 1.900000
vertex -5.200000 3.000000 -1.000000
endloop
endfacet
facet normal -0.707107 0.707107 -0.000001
outer loop
vertex -3.000000 5.200000 -1.000000
vertex -5.200000 3.000000 -1.000000
vertex -5.200000 3.000002 2.000000
endloop
endfacet
facet normal -0.707106 0.707107 0.000000
outer loop
vertex -3.000000 5.200000 -1.000000
vertex -5.200000 3.000002 2.000000
vertex -2.999999 5.200000 2.000000
endloop
endfacet
facet normal 0.563359 -0.431530 -0.704562
outer loop
vertex -5.200000 3.000000 -1.000000
vertex -2.192031 2.192031 1.900000
vertex -2.250000 1.300000 2.400000
endloop
endfacet
facet normal 0.000000 0.000000 1.000000
outer loop
vertex -2.830000 -2.830000 2.000000
vertex -3.460000 -2.000000 2.000000
vertex -5.200000 -2.999999 2.000000
endloop
endfacet
facet normal 0.271591 -0.655680 -0.704501
outer loop
vertex -1.550001 2.684679 1.900000
vertex -3.000000 5.200000 -1.000000
vertex -0.802338 2.994370 1.900000
endloop
endfacet
facet normal 0.704062 -0.092691 -0.704063
outer loop
vertex -3.100000 0.000000 1.900000
vertex -6.000000 0.000000 -0.999996
vertex -2.994370 0.802339 1.900000
endloop
endfacet
facet normal 0.704062 0.092691 -0.704063
outer loop
vertex -2.994370 -0.802339 1.900000
vertex -6.000000 0.000000 -0.999996
vertex -3.100000 0.000000 1.900000
endloop
endfacet
facet normal -0.707107 -0.707107 -0.000000
outer loop
vertex -5.200000 -3.000000 -1.000000
vertex -3.000000 -5.200000 -1.000000
vertex -2.999999 -5.200000 2.000000
endloop
endfacet
facet normal -0.707107 -0.707107 0.000000
outer loop
vertex -5.200000 -3.000000 -1.000000
vertex -2.999999 -5.200000 2.000000
vertex -5.200000 -2.999999 2.000000
endloop
endfacet
facet normal 0.707107 -0.707107 -0.000000
outer loop
vertex 3.000000 -5.200000 -1.000000
vertex 5.200000 -3.000000 -1.000000
vertex 5.200000 -3.000001 2.000000
endloop
endfacet
facet normal 0.707107 -0.707107 0.000000
outer loop
vertex 3.000000 -5.200000 -1.000000
vertex 5.200000 -3.000001 2.000000
vertex 3.000000 -5.200000 2.000000
endloop
endfacet
facet normal 0.000000 0.000000 1.000000
outer loop
vertex 3.460000 -2.000000 2.000000
vertex 2.830000 -2.830000 2.000000
vertex 5.200000 -3.000001 2.000000
endloop
endfacet
facet normal 0.247186 -0.968968 0.000000
outer loop
vertex 1.040000 -5.700000 2.000000
vertex 3.000000 -5.200000 -1.000000
vertex 3.000000 -5.200000 2.000000
endloop
endfacet
facet normal 0.257656 -0.966209 0.007300
outer loop
vertex 1.040000 -5.700000 2.000000
vertex 0.000000 -6.000000 -1.000000
vertex 3.000000 -5.200000 -1.000000
endloop
endfacet
facet normal 0.277161 -0.960823 0.000000
outer loop
vertex 0.000000 -6.000000 -1.000000
vertex 1.040000 -5.700000 2.000000
vertex 0.000000 -6.000000 2.000000
endloop
endfacet
facet normal -0.277161 -0.960824 -0.000000
outer loop
vertex -1.040000 -5.700000 2.000000
vertex 0.000000 -6.000000 -1.000000
vertex 0.000000 -6.000000 2.000000
endloop
endfacet
facet normal -0.257656 -0.966209 0.007300
outer loop
vertex 0.000000 -6.000000 -1.000000
vertex -1.040000 -5.700000 2.000000
vertex -3.000000 -5.200000 -1.000000
endloop
endfacet
facet normal -0.247186 -0.968968 0.000000
outer loop
vertex -3.000000 -5.200000 -1.000000
vertex -1.040000 -5.700000 2.000000
vertex -2.999999 -5.200000 2.000000
endloop
endfacet
facet normal 0.000000 0.000000 1.000000
outer loop
vertex -1.040000 -5.700000 2.000000
vertex -1.040000 -3.860000 2.000000
vertex -2.000000 -3.460000 2.000000
endloop
endfacet
facet normal 0.000000 0.000000 1.000000
outer loop
vertex -1.040000 -5.700000 2.000000
vertex -2.000000 -3.460000 2.000000
vertex -2.999999 -5.200000 2.000000
endloop
endfacet
facet normal 0.000000 0.000000 1.000000
outer loop
vertex -2.830000 -2.830000 2.000000
vertex -2.999999 -5.200000 2.000000
vertex -2.000000 -3.460000 2.000000
endloop
endfacet
facet normal -0.384616 -0.923077 0.000000
outer loop
vertex -1.040000 -3.860000 11.000000
vertex -2.000000 -3.460000 11.000000
vertex -2.000000 -3.460000 2.000000
endloop
endfacet
facet normal -0.384616 -0.923077 0.000000
outer loop
vertex -1.040000 -3.860000 11.000000
vertex -2.000000 -3.460000 2.000000
vertex -1.040000 -3.860000 2.000000
endloop
endfacet
facet normal -0.923077 -0.384616 0.000000
outer loop
vertex -3.860000 -1.040000 11.000000
vertex -3.860000 -1.040000 2.000000
vertex -3.460000 -2.000000 2.000000
endloop
endfacet
facet normal -0.923077 -0.384616 0.000000
outer loop
vertex -3.860000 -1.040000 11.000000
vertex -3.460000 -2.000000 2.000000
vertex -3.460000 -2.000000 11.000000
endloop
endfacet
facet normal -0.277161 -0.960824 0.000000
outer loop
vertex -1.040000 -5.700000 11.000000
vertex -1.040000 -5.700000 2.000000
vertex 0.000000 -6.000000 2.000000
endloop
endfacet
facet normal -0.277161 -0.960824 0.000000
outer loop
vertex -1.040000 -5.700000 11.000000
vertex 0.000000 -6.000000 2.000000
vertex 0.000000 -6.000000 11.000000
endloop
endfacet
facet normal 0.277161 -0.960824 -0.000000
outer loop
vertex 1.040000 -5.700000 11.000000
vertex 0.000000 -6.000000 11.000000
vertex 0.000000 -6.000000 2.000000
endloop
endfacet
facet normal 0.277161 -0.960823 0.000000
outer loop
vertex 1.040000 -5.700000 11.000000
vertex 0.000000 -6.000000 2.000000
vertex 1.040000 -5.700000 2.000000
endloop
endfacet
facet normal -0.968968 -0.247186 0.000000
outer loop
vertex -5.200000 -2.999999 2.000000
vertex -5.700000 -1.040000 2.000000
vertex -5.200000 -3.000000 -1.000000
endloop
endfacet
facet normal -0.966209 -0.257656 0.007300
outer loop
vertex -5.200000 -3.000000 -1.000000
vertex -5.700000 -1.040000 2.000000
vertex -6.000000 0.000000 -0.999996
endloop
endfacet
facet normal -0.960823 -0.277161 0.000000
outer loop
vertex -6.000000 0.000000 -0.999996
vertex -5.700000 -1.040000 2.000000
vertex -6.000000 0.000001 2.000000
endloop
endfacet
facet normal -0.960823 0.277162 -0.000000
outer loop
vertex -6.000000 0.000000 -0.999996
vertex -6.000000 0.000001 2.000000
vertex -5.700000 1.040000 2.000000
endloop
endfacet
facet normal -0.966209 0.257656 0.007300
outer loop
vertex -5.700000 1.040000 2.000000
vertex -5.200000 3.000000 -1.000000
vertex -6.000000 0.000000 -0.999996
endloop
endfacet
facet normal -0.923077 0.384616 0.000000
outer loop
vertex -3.460000 2.000000 11.000000
vertex -3.460000 2.000000 2.000000
vertex -3.860000 1.040000 2.000000
endloop
endfacet
facet normal -0.923077 0.384616 0.000000
outer loop
vertex -3.460000 2.000000 11.000000
vertex -3.860000 1.040000 2.000000
vertex -3.860000 1.040000 11.000000
endloop
endfacet
facet normal 0.000000 0.000000 1.000000
outer loop
vertex -1.040000 5.700000 2.000000
vertex -2.999999 5.200000 2.000000
vertex -2.000000 3.460000 2.000000
endloop
endfacet
facet normal 0.000000 0.000000 1.000000
outer loop
vertex -1.040000 5.700000 2.000000
vertex -2.000000 3.460000 2.000000
vertex -1.040000 3.860000 2.000000
endloop
endfacet
facet normal 0.000000 0.000000 1.000000
outer loop
vertex -2.000000 3.460000 2.000000
vertex -2.999999 5.200000 2.000000
vertex -2.830000 2.830000 2.000000
endloop
endfacet
facet normal 0.000000 0.000000 1.000000
outer loop
vertex -2.830000 2.830000 2.000000
vertex -5.200000 3.000002 2.000000
vertex -3.460000 2.000000 2.000000
endloop
endfacet
facet normal 0.000000 0.000000 1.000000
outer loop
vertex -2.999999 5.200000 2.000000
vertex -5.200000 3.000002 2.000000
vertex -2.830000 2.830000 2.000000
endloop
endfacet
facet normal 0.000000 0.000000 1.000000
outer loop
vertex -3.860000 1.040000 2.000000
vertex -3.460000 2.000000 2.000000
vertex -5.200000 3.000002 2.000000
endloop
endfacet
facet normal 0.000000 0.000000 1.000000
outer loop
vertex -3.860000 1.040000 2.000000
vertex -5.200000 3.000002 2.000000
vertex -5.700000 1.040000 2.000000
endloop
endfacet
facet normal -0.968968 0.247185 -0.000000
outer loop
vertex -5.200000 3.000002 2.000000
vertex -5.200000 3.000000 -1.000000
vertex -5.700000 1.040000 2.000000
endloop
endfacet
facet normal -0.960824 0.277160 0.000000
outer loop
vertex -6.000000 0.000000 11.000000
vertex -5.700000 1.040000 11.000000
vertex -5.700000 1.040000 2.000000
endloop
endfacet
facet normal -0.960823 0.277161 0.000000
outer loop
vertex -6.000000 0.000000 11.000000
vertex -5.700000 1.040000 2.000000
vertex -6.000000 0.000001 2.000000
endloop
endfacet
facet normal -0.960823 -0.277161 -0.000000
outer loop
vertex -5.700000 -1.040000 11.000000
vertex -6.000000 0.000000 11.000000
vertex -6.000000 0.000001 2.000000
endloop
endfacet
facet normal -0.960824 -0.277160 0.000000
outer loop
vertex -5.700000 -1.040000 11.000000
vertex -6.000000 0.000001 2.000000
vertex -5.700000 -1.040000 2.000000
endloop
endfacet
facet normal -0.384616 0.923077 0.000000
outer loop
vertex -2.000000 3.460000 2.000000
vertex -2.000000 3.460000 11.000000
vertex -1.040000 3.860000 11.000000
endloop
endfacet
facet normal -0.384616 0.923077 0.000000
outer loop
vertex -2.000000 3.460000 2.000000
vertex -1.040000 3.860000 11.000000
vertex -1.040000 3.860000 2.000000
endloop
endfacet
facet normal 0.000000 0.000000 1.000000
outer loop
vertex 2.000000 -3.460000 2.000000
vertex 3.000000 -5.200000 2.000000
vertex 2.830000 -2.830000 2.000000
endloop
endfacet
facet normal 0.000000 0.000000 1.000000
outer loop
vertex 5.200000 -3.000001 2.000000
vertex 2.830000 -2.830000 2.000000
vertex 3.000000 -5.200000 2.000000
endloop
endfacet
facet normal 0.000000 0.000000 1.000000
outer loop
vertex 1.040000 -5.700000 2.000000
vertex 3.000000 -5.200000 2.000000
vertex 2.000000 -3.460000 2.000000
endloop
endfacet
facet normal 0.000000 0.000000 1.000000
outer loop
vertex 1.040000 -5.700000 2.000000
vertex 2.000000 -3.460000 2.000000
vertex 1.040000 -3.860000 2.000000
endloop
endfacet
facet normal 0.923077 -0.384616 0.000000
outer loop
vertex 3.460000 -2.000000 2.000000
vertex 3.860000 -1.040000 2.000000
vertex 3.860000 -1.040000 11.000000
endloop
endfacet
facet normal 0.923077 -0.384616 0.000000
outer loop
vertex 3.460000 -2.000000 2.000000
vertex 3.860000 -1.040000 11.000000
vertex 3.460000 -2.000000 11.000000
endloop
endfacet
facet normal 0.384616 -0.923077 0.000000
outer loop
vertex 2.000000 -3.460000 11.000000
vertex 1.040000 -3.860000 11.000000
vertex 1.040000 -3.860000 2.000000
endloop
endfacet
facet normal 0.384616 -0.923077 0.000000
outer loop
vertex 2.000000 -3.460000 11.000000
vertex 1.040000 -3.860000 2.000000
vertex 2.000000 -3.460000 2.000000
endloop
endfacet
facet normal -0.277161 0.960824 -0.000000
outer loop
vertex 0.000000 6.000000 -1.000000
vertex -1.040000 5.700000 2.000000
vertex 0.000000 6.000000 2.000000
endloop
endfacet
facet normal -0.257656 0.966209 0.007300
outer loop
vertex -1.040000 5.700000 2.000000
vertex 0.000000 6.000000 -1.000000
vertex -3.000000 5.200000 -1.000000
endloop
endfacet
facet normal -0.247186 0.968968 0.000000
outer loop
vertex -2.999999 5.200000 2.000000
vertex -1.040000 5.700000 2.000000
vertex -3.000000 5.200000 -1.000000
endloop
endfacet
facet normal -0.277161 0.960824 0.000000
outer loop
vertex -1.040000 5.700000 2.000000
vertex -1.040000 5.700000 11.000000
vertex 0.000000 6.000000 11.000000
endloop
endfacet
facet normal -0.277161 0.960824 0.000000
outer loop
vertex -1.040000 5.700000 2.000000
vertex 0.000000 6.000000 11.000000
vertex 0.000000 6.000000 2.000000
endloop
endfacet
facet normal 0.277161 0.960824 0.000000
outer loop
vertex 0.000000 6.000000 11.000000
vertex 1.040000 5.700000 11.000000
vertex 1.040000 5.700000 2.000000
endloop
endfacet
facet normal 0.277161 0.960823 -0.000000
outer loop
vertex 0.000000 6.000000 11.000000
vertex 1.040000 5.700000 2.000000
vertex 0.000000 6.000000 2.000000
endloop
endfacet
facet normal 0.000000 0.000000 1.000000
outer loop
vertex 3.000000 5.200000 2.000000
vertex 1.040000 5.700000 2.000000
vertex 1.040000 3.860000 2.000000
endloop
endfacet
facet normal 0.000000 0.000000 1.000000
outer loop
vertex 3.000000 5.200000 2.000000
vertex 1.040000 3.860000 2.000000
vertex 2.000000 3.460000 2.000000
endloop
endfacet
facet normal 0.257656 0.966209 0.007300
outer loop
vertex 0.000000 6.000000 -1.000000
vertex 1.040000 5.700000 2.000000
vertex 3.000000 5.200000 -1.000000
endloop
endfacet
facet normal 0.000000 0.000000 1.000000
outer loop
vertex 2.000000 3.460000 2.000000
vertex 2.830000 2.830000 2.000000
vertex 3.000000 5.200000 2.000000
endloop
endfacet
facet normal 0.966209 0.257656 0.007300
outer loop
vertex 5.700000 1.040000 2.000000
vertex 6.000000 0.000000 -1.000000
vertex 5.200000 3.000000 -1.000000
endloop
endfacet
facet normal 0.968968 0.247185 -0.000000
outer loop
vertex 5.200000 3.000000 -1.000000
vertex 5.200000 3.000001 2.000000
vertex 5.700000 1.040000 2.000000
endloop
endfacet
facet normal 0.923077 0.384616 0.000000
outer loop
vertex 3.860000 1.040000 2.000000
vertex 3.460000 2.000000 2.000000
vertex 3.460000 2.000000 11.000000
endloop
endfacet
facet normal 0.923077 0.384616 0.000000
outer loop
vertex 3.860000 1.040000 2.000000
vertex 3.460000 2.000000 11.000000
vertex 3.860000 1.040000 11.000000
endloop
endfacet
facet normal 0.384616 0.923077 0.000000
outer loop
vertex 1.040000 3.860000 11.000000
vertex 2.000000 3.460000 11.000000
vertex 2.000000 3.460000 2.000000
endloop
endfacet
facet normal 0.384616 0.923077 0.000000
outer loop
vertex 1.040000 3.860000 11.000000
vertex 2.000000 3.460000 2.000000
vertex 1.040000 3.860000 2.000000
endloop
endfacet
facet normal 0.247186 0.968968 0.000000
outer loop
vertex 3.000000 5.200000 -1.000000
vertex 1.040000 5.700000 2.000000
vertex 3.000000 5.200000 2.000000
endloop
endfacet
facet normal -0.563359 -0.431531 -0.704562
outer loop
vertex 2.192031 2.192031 1.900000
vertex 5.200000 3.000000 -1.000000
vertex 2.250000 1.300000 2.400000
endloop
endfacet
facet normal -0.655284 -0.272177 -0.704644
outer loop
vertex 2.250000 1.300000 2.400000
vertex 5.200000 3.000000 -1.000000
vertex 2.994370 0.802339 1.900000
endloop
endfacet
facet normal -0.707496 -0.188666 -0.681068
outer loop
vertex 6.000000 0.000000 -1.000000
vertex 2.994370 0.802339 1.900000
vertex 5.200000 3.000000 -1.000000
endloop
endfacet
facet normal -0.432077 -0.563094 -0.704439
outer loop
vertex 3.000000 5.200000 -1.000000
vertex 2.192031 2.192031 1.900000
vertex 1.550000 2.684679 1.900000
endloop
endfacet
facet normal -0.271592 -0.655680 -0.704501
outer loop
vertex 1.550000 2.684679 1.900000
vertex 0.802339 2.994370 1.900000
vertex 3.000000 5.200000 -1.000000
endloop
endfacet
facet normal -0.517681 -0.517681 -0.681185
outer loop
vertex 5.200000 3.000000 -1.000000
vertex 2.192031 2.192031 1.900000
vertex 3.000000 5.200000 -1.000000
endloop
endfacet
facet normal 0.960824 0.277161 0.000000
outer loop
vertex 6.000000 0.000000 -1.000000
vertex 5.700000 1.040000 2.000000
vertex 6.000000 0.000000 2.000000
endloop
endfacet
facet normal 0.960824 -0.277161 0.000000
outer loop
vertex 5.700000 -1.040000 2.000000
vertex 6.000000 0.000000 -1.000000
vertex 6.000000 0.000000 2.000000
endloop
endfacet
facet normal 0.960823 0.277161 0.000000
outer loop
vertex 5.700000 1.040000 11.000000
vertex 6.000000 0.000000 11.000000
vertex 6.000000 0.000000 2.000000
endloop
endfacet
facet normal 0.960824 0.277160 0.000000
outer loop
vertex 5.700000 1.040000 11.000000
vertex 6.000000 0.000000 2.000000
vertex 5.700000 1.040000 2.000000
endloop
endfacet
facet normal 0.960824 -0.277160 0.000000
outer loop
vertex 6.000000 0.000000 11.000000
vertex 5.700000 -1.040000 11.000000
vertex 5.700000 -1.040000 2.000000
endloop
endfacet
facet normal 0.960823 -0.277161 0.000000
outer loop
vertex 6.000000 0.000000 11.000000
vertex 5.700000 -1.040000 2.000000
vertex 6.000000 0.000000 2.000000
endloop
endfacet
endsolid Exported from Blender-2.93.1
