solid Exported from Blender-2.93.1
facet normal -0.819232 -0.573462 0.000000
outer loop
vertex -0.300000 2.500000 0.500000
vertex -0.300000 2.500000 11.000000
vertex -1.000000 3.500000 11.000000
endloop
endfacet
facet normal -0.819232 -0.573462 0.000000
outer loop
vertex -0.300000 2.500000 0.500000
vertex -1.000000 3.500000 11.000000
vertex -1.000000 3.500000 0.000000
endloop
endfacet
facet normal 0.000000 0.000000 1.000000
outer loop
vertex -1.000000 5.000000 11.000000
vertex -1.000000 3.500000 11.000000
vertex 1.000000 3.500000 11.000000
endloop
endfacet
facet normal 0.000000 0.000000 1.000000
outer loop
vertex 1.000000 3.500000 11.000000
vertex 1.000000 5.000000 11.000000
vertex 0.800000 5.000000 11.000000
endloop
endfacet
facet normal 0.000000 0.000000 1.000000
outer loop
vertex -0.800000 5.000000 11.000000
vertex -1.000000 5.000000 11.000000
vertex 1.000000 3.500000 11.000000
endloop
endfacet
facet normal 0.000000 0.000000 1.000000
outer loop
vertex 1.000000 3.500000 11.000000
vertex 0.800000 5.000000 11.000000
vertex -0.800000 5.000000 11.000000
endloop
endfacet
facet normal 0.819232 -0.573462 0.000000
outer loop
vertex 1.000000 3.500000 0.000000
vertex 1.000000 3.500000 11.000000
vertex 0.300000 2.500000 11.000000
endloop
endfacet
facet normal 0.819232 -0.573462 0.000000
outer loop
vertex 1.000000 3.500000 0.000000
vertex 0.300000 2.500000 11.000000
vertex 0.300000 2.500000 0.500000
endloop
endfacet
facet normal 0.000000 -1.000000 0.000000
outer loop
vertex 0.300000 2.500000 0.500000
vertex 0.300000 2.500000 11.000000
vertex -0.300000 2.500000 11.000000
endloop
endfacet
facet normal 0.000000 -1.000000 0.000000
outer loop
vertex 0.300000 2.500000 0.500000
vertex -0.300000 2.500000 11.000000
vertex -0.300000 2.500000 0.500000
endloop
endfacet
facet normal 0.000000 -0.447214 -0.894427
outer loop
vertex -1.000000 3.500000 0.000000
vertex 1.000000 3.500000 0.000000
vertex 0.300000 2.500000 0.500000
endloop
endfacet
facet normal 0.000000 -0.447214 -0.894427
outer loop
vertex -1.000000 3.500000 0.000000
vertex 0.300000 2.500000 0.500000
vertex -0.300000 2.500000 0.500000
endloop
endfacet
facet normal 0.000000 0.000000 1.000000
outer loop
vertex 1.000000 3.500000 11.000000
vertex -1.000000 3.500000 11.000000
vertex -0.300000 2.500000 11.000000
endloop
endfacet
facet normal 0.000000 0.000000 1.000000
outer loop
vertex 1.000000 3.500000 11.000000
vertex -0.300000 2.500000 11.000000
vertex 0.300000 2.500000 11.000000
endloop
endfacet
facet normal 0.000000 1.000000 0.000000
outer loop
vertex -1.000000 5.000000 0.000000
vertex -1.000000 5.000000 11.000000
vertex -0.800000 5.000000 11.000000
endloop
endfacet
facet normal 0.000000 1.000000 0.000000
outer loop
vertex -1.000000 5.000000 0.000000
vertex -0.800000 5.000000 11.000000
vertex -0.800000 5.000000 -1.000000
endloop
endfacet
facet normal -1.000000 0.000000 0.000000
outer loop
vertex 3.500000 0.900000 11.000000
vertex 3.500000 0.900000 0.000000
vertex 3.500000 -0.900000 0.000000
endloop
endfacet
facet normal -1.000000 0.000000 0.000000
outer loop
vertex 3.500000 0.900000 11.000000
vertex 3.500000 -0.900000 0.000000
vertex 3.500000 -0.900000 11.000000
endloop
endfacet
facet normal 0.554700 0.000000 -0.832050
outer loop
vertex 2.500000 2.500000 1.000000
vertex 1.000000 3.500000 0.000000
vertex 1.000000 5.000000 0.000000
endloop
endfacet
facet normal 0.235702 -0.235702 -0.942809
outer loop
vertex 2.500000 2.500000 1.000000
vertex 1.000000 5.000000 0.000000
vertex 3.500000 3.500000 1.000000
endloop
endfacet
facet normal -0.235702 0.235702 -0.942809
outer loop
vertex 2.500000 2.500000 1.000000
vertex 3.500000 3.500000 1.000000
vertex 5.000000 1.000000 0.000000
endloop
endfacet
facet normal -0.034280 0.514193 -0.856989
outer loop
vertex 2.500000 2.500000 1.000000
vertex 5.000000 1.000000 0.000000
vertex 3.500000 0.900000 0.000000
endloop
endfacet
facet normal 0.075892 -0.997116 0.000000
outer loop
vertex -2.315000 0.990192 1.000000
vertex -2.315000 0.990192 11.000000
vertex -3.500000 0.900000 11.000000
endloop
endfacet
facet normal 0.075892 -0.997116 0.000000
outer loop
vertex -2.315000 0.990192 1.000000
vertex -3.500000 0.900000 11.000000
vertex -3.500000 0.900000 0.000000
endloop
endfacet
facet normal 0.000000 0.000000 1.000000
outer loop
vertex -3.500000 0.900000 11.000000
vertex -2.500000 2.500000 11.000000
vertex -3.500000 3.500000 11.000000
endloop
endfacet
facet normal 0.000001 0.000000 1.000000
outer loop
vertex -3.500000 0.900000 11.000000
vertex -3.500000 3.500000 11.000000
vertex -5.000000 1.000000 11.000000
endloop
endfacet
facet normal 0.898060 0.439873 -0.000000
outer loop
vertex -2.500000 2.500000 1.000000
vertex -2.500000 2.500000 11.000000
vertex -2.015000 1.509808 11.000000
endloop
endfacet
facet normal 0.898060 0.439874 0.000000
outer loop
vertex -2.500000 2.500000 1.000000
vertex -2.015000 1.509808 11.000000
vertex -2.015000 1.509808 1.000000
endloop
endfacet
facet normal 0.866025 -0.500001 0.000000
outer loop
vertex -2.015000 1.509808 1.000000
vertex -2.015000 1.509808 11.000000
vertex -2.315000 0.990192 11.000000
endloop
endfacet
facet normal 0.866025 -0.500000 0.000000
outer loop
vertex -2.015000 1.509808 1.000000
vertex -2.315000 0.990192 11.000000
vertex -2.315000 0.990192 1.000000
endloop
endfacet
facet normal 0.000000 0.000000 -1.000000
outer loop
vertex -2.015000 1.509808 1.000000
vertex -2.315000 0.990192 1.000000
vertex -2.500000 2.500000 1.000000
endloop
endfacet
facet normal -0.000001 0.000000 1.000000
outer loop
vertex -2.500000 2.500000 11.000000
vertex -3.500000 0.900000 11.000000
vertex -2.315000 0.990192 11.000000
endloop
endfacet
facet normal -0.000002 0.000000 1.000000
outer loop
vertex -2.500000 2.500000 11.000000
vertex -2.315000 0.990192 11.000000
vertex -2.015000 1.509808 11.000000
endloop
endfacet
facet normal -0.857493 0.514496 0.000000
outer loop
vertex -5.000000 1.000000 0.000000
vertex -5.000000 1.000000 11.000000
vertex -3.500000 3.500000 11.000000
endloop
endfacet
facet normal -0.857493 0.514496 0.000000
outer loop
vertex -5.000000 1.000000 0.000000
vertex -3.500000 3.500000 11.000000
vertex -3.500000 3.500000 1.000000
endloop
endfacet
facet normal -0.554700 0.832050 0.000000
outer loop
vertex 2.500000 -2.500000 11.000000
vertex 2.500000 -2.500000 1.000000
vertex 1.000000 -3.500000 0.000000
endloop
endfacet
facet normal -0.554700 0.832050 0.000000
outer loop
vertex 2.500000 -2.500000 11.000000
vertex 1.000000 -3.500000 0.000000
vertex 1.000000 -3.500000 11.000000
endloop
endfacet
facet normal -0.065233 0.978492 -0.195699
outer loop
vertex 5.000000 1.000000 0.000000
vertex 5.000000 0.800000 -1.000000
vertex 3.500000 0.900000 0.000000
endloop
endfacet
facet normal -0.337869 -0.337869 -0.878459
outer loop
vertex 3.500000 -3.500000 1.000000
vertex 2.500000 -2.500000 1.000000
vertex 3.500000 -0.900000 0.000000
endloop
endfacet
facet normal -0.023925 -0.358876 -0.933078
outer loop
vertex 3.500000 -3.500000 1.000000
vertex 3.500000 -0.900000 0.000000
vertex 5.000000 -1.000000 0.000000
endloop
endfacet
facet normal 0.898060 -0.439873 0.000000
outer loop
vertex -2.015000 -1.509808 1.000000
vertex -2.015000 -1.509808 11.000000
vertex -2.500000 -2.500000 11.000000
endloop
endfacet
facet normal 0.898060 -0.439873 0.000000
outer loop
vertex -2.015000 -1.509808 1.000000
vertex -2.500000 -2.500000 11.000000
vertex -2.500000 -2.500000 1.000000
endloop
endfacet
facet normal 0.000001 0.000000 1.000000
outer loop
vertex -2.500000 -2.500000 11.000000
vertex -3.500000 -0.900000 11.000000
vertex -5.000000 -1.000000 11.000000
endloop
endfacet
facet normal 0.000000 0.000000 1.000000
outer loop
vertex -2.500000 -2.500000 11.000000
vertex -5.000000 -1.000000 11.000000
vertex -3.500000 -3.500000 11.000000
endloop
endfacet
facet normal 0.075892 0.997116 0.000000
outer loop
vertex -3.500000 -0.900000 0.000000
vertex -3.500000 -0.900000 11.000000
vertex -2.315000 -0.990192 11.000000
endloop
endfacet
facet normal 0.075892 0.997116 0.000000
outer loop
vertex -3.500000 -0.900000 0.000000
vertex -2.315000 -0.990192 11.000000
vertex -2.315000 -0.990192 1.000000
endloop
endfacet
facet normal 0.866026 0.500000 0.000000
outer loop
vertex -2.315000 -0.990192 1.000000
vertex -2.315000 -0.990192 11.000000
vertex -2.015000 -1.509808 11.000000
endloop
endfacet
facet normal 0.866025 0.500000 0.000000
outer loop
vertex -2.315000 -0.990192 1.000000
vertex -2.015000 -1.509808 11.000000
vertex -2.015000 -1.509808 1.000000
endloop
endfacet
facet normal 0.639457 0.078354 -0.764824
outer loop
vertex -3.500000 0.900000 0.000000
vertex -2.500000 2.500000 1.000000
vertex -2.315000 0.990192 1.000000
endloop
endfacet
facet normal -0.000001 0.000000 1.000000
outer loop
vertex -3.500000 -0.900000 11.000000
vertex -2.500000 -2.500000 11.000000
vertex -2.015000 -1.509808 11.000000
endloop
endfacet
facet normal 0.000000 0.000000 1.000000
outer loop
vertex -3.500000 -0.900000 11.000000
vertex -2.015000 -1.509808 11.000000
vertex -2.315000 -0.990192 11.000000
endloop
endfacet
facet normal -0.857493 -0.514496 0.000000
outer loop
vertex -3.500000 -3.500000 1.000000
vertex -3.500000 -3.500000 11.000000
vertex -5.000000 -1.000000 11.000000
endloop
endfacet
facet normal -0.857493 -0.514496 0.000000
outer loop
vertex -3.500000 -3.500000 1.000000
vertex -5.000000 -1.000000 11.000000
vertex -5.000000 -1.000000 0.000000
endloop
endfacet
facet normal 0.554700 0.832050 0.000000
outer loop
vertex -1.000000 -3.500000 11.000000
vertex -1.000000 -3.500000 0.000000
vertex -2.500000 -2.500000 1.000000
endloop
endfacet
facet normal 0.554700 0.832050 0.000000
outer loop
vertex -1.000000 -3.500000 11.000000
vertex -2.500000 -2.500000 1.000000
vertex -2.500000 -2.500000 11.000000
endloop
endfacet
facet normal 0.235702 0.235702 -0.942809
outer loop
vertex 2.500000 -2.500000 1.000000
vertex 3.500000 -3.500000 1.000000
vertex 1.000000 -5.000000 0.000000
endloop
endfacet
facet normal 0.554700 0.000000 -0.832050
outer loop
vertex 2.500000 -2.500000 1.000000
vertex 1.000000 -5.000000 0.000000
vertex 1.000000 -3.500000 0.000000
endloop
endfacet
facet normal 0.980581 0.000000 -0.196116
outer loop
vertex 1.000000 -3.500000 0.000000
vertex 1.000000 -5.000000 0.000000
vertex 0.800000 -5.000000 -1.000000
endloop
endfacet
facet normal 0.819232 0.573462 0.000000
outer loop
vertex 0.300000 -2.500000 0.500000
vertex 0.300000 -2.500000 11.000000
vertex 1.000000 -3.500000 11.000000
endloop
endfacet
facet normal 0.819232 0.573462 0.000000
outer loop
vertex 0.300000 -2.500000 0.500000
vertex 1.000000 -3.500000 11.000000
vertex 1.000000 -3.500000 0.000000
endloop
endfacet
facet normal 0.000000 0.000000 1.000000
outer loop
vertex 1.000000 -5.000000 11.000000
vertex 1.000000 -3.500000 11.000000
vertex -1.000000 -3.500000 11.000000
endloop
endfacet
facet normal 0.000000 0.000000 1.000000
outer loop
vertex -1.000000 -3.500000 11.000000
vertex -1.000000 -5.000000 11.000000
vertex -0.800000 -5.000000 11.000000
endloop
endfacet
facet normal 0.000000 0.000000 1.000000
outer loop
vertex 0.800000 -5.000000 11.000000
vertex 1.000000 -5.000000 11.000000
vertex -1.000000 -3.500000 11.000000
endloop
endfacet
facet normal 0.000000 0.000000 1.000000
outer loop
vertex -1.000000 -3.500000 11.000000
vertex -0.800000 -5.000000 11.000000
vertex 0.800000 -5.000000 11.000000
endloop
endfacet
facet normal -0.819232 0.573462 0.000000
outer loop
vertex -1.000000 -3.500000 0.000000
vertex -1.000000 -3.500000 11.000000
vertex -0.300000 -2.500000 11.000000
endloop
endfacet
facet normal -0.819232 0.573462 0.000000
outer loop
vertex -1.000000 -3.500000 0.000000
vertex -0.300000 -2.500000 11.000000
vertex -0.300000 -2.500000 0.500000
endloop
endfacet
facet normal 0.000000 1.000000 0.000000
outer loop
vertex -0.300000 -2.500000 0.500000
vertex -0.300000 -2.500000 11.000000
vertex 0.300000 -2.500000 11.000000
endloop
endfacet
facet normal 0.000000 1.000000 0.000000
outer loop
vertex -0.300000 -2.500000 0.500000
vertex 0.300000 -2.500000 11.000000
vertex 0.300000 -2.500000 0.500000
endloop
endfacet
facet normal 0.000000 0.447214 -0.894427
outer loop
vertex 1.000000 -3.500000 0.000000
vertex -1.000000 -3.500000 0.000000
vertex -0.300000 -2.500000 0.500000
endloop
endfacet
facet normal 0.000000 0.447214 -0.894427
outer loop
vertex 1.000000 -3.500000 0.000000
vertex -0.300000 -2.500000 0.500000
vertex 0.300000 -2.500000 0.500000
endloop
endfacet
facet normal 0.000000 0.000000 1.000000
outer loop
vertex -1.000000 -3.500000 11.000000
vertex 1.000000 -3.500000 11.000000
vertex 0.300000 -2.500000 11.000000
endloop
endfacet
facet normal 0.000000 0.000000 1.000000
outer loop
vertex -1.000000 -3.500000 11.000000
vertex 0.300000 -2.500000 11.000000
vertex -0.300000 -2.500000 11.000000
endloop
endfacet
facet normal 0.000000 -1.000000 0.000000
outer loop
vertex 1.000000 -5.000000 0.000000
vertex 1.000000 -5.000000 11.000000
vertex 0.800000 -5.000000 11.000000
endloop
endfacet
facet normal 0.000000 -1.000000 0.000000
outer loop
vertex 1.000000 -5.000000 0.000000
vertex 0.800000 -5.000000 11.000000
vertex 0.800000 -5.000000 -1.000000
endloop
endfacet
facet normal 1.000000 0.000000 0.000000
outer loop
vertex -3.500000 -0.900000 11.000000
vertex -3.500000 -0.900000 0.000000
vertex -3.500000 0.900000 0.000000
endloop
endfacet
facet normal 1.000000 0.000000 0.000000
outer loop
vertex -3.500000 -0.900000 11.000000
vertex -3.500000 0.900000 0.000000
vertex -3.500000 0.900000 11.000000
endloop
endfacet
facet normal -0.235702 0.235702 -0.942809
outer loop
vertex -1.000000 -5.000000 0.000000
vertex -3.500000 -3.500000 1.000000
vertex -2.500000 -2.500000 1.000000
endloop
endfacet
facet normal -0.554700 0.000000 -0.832050
outer loop
vertex -1.000000 -5.000000 0.000000
vertex -2.500000 -2.500000 1.000000
vertex -1.000000 -3.500000 0.000000
endloop
endfacet
facet normal 0.337869 -0.337869 -0.878459
outer loop
vertex -3.500000 -0.900000 0.000000
vertex -2.500000 -2.500000 1.000000
vertex -3.500000 -3.500000 1.000000
endloop
endfacet
facet normal 0.023925 -0.358876 -0.933078
outer loop
vertex -3.500000 -0.900000 0.000000
vertex -3.500000 -3.500000 1.000000
vertex -5.000000 -1.000000 0.000000
endloop
endfacet
facet normal -0.075892 0.997116 0.000000
outer loop
vertex 2.315000 -0.990192 1.000000
vertex 2.315000 -0.990192 11.000000
vertex 3.500000 -0.900000 11.000000
endloop
endfacet
facet normal -0.075892 0.997116 0.000000
outer loop
vertex 2.315000 -0.990192 1.000000
vertex 3.500000 -0.900000 11.000000
vertex 3.500000 -0.900000 0.000000
endloop
endfacet
facet normal 0.000000 0.000000 1.000000
outer loop
vertex 3.500000 -0.900000 11.000000
vertex 2.500000 -2.500000 11.000000
vertex 3.500000 -3.500000 11.000000
endloop
endfacet
facet normal -0.000001 0.000000 1.000000
outer loop
vertex 3.500000 -0.900000 11.000000
vertex 3.500000 -3.500000 11.000000
vertex 5.000000 -1.000000 11.000000
endloop
endfacet
facet normal -0.898060 -0.439873 0.000000
outer loop
vertex 2.500000 -2.500000 1.000000
vertex 2.500000 -2.500000 11.000000
vertex 2.015000 -1.509808 11.000000
endloop
endfacet
facet normal -0.898060 -0.439873 0.000000
outer loop
vertex 2.500000 -2.500000 1.000000
vertex 2.015000 -1.509808 11.000000
vertex 2.015000 -1.509808 1.000000
endloop
endfacet
facet normal -0.866025 0.500000 0.000000
outer loop
vertex 2.015000 -1.509808 1.000000
vertex 2.015000 -1.509808 11.000000
vertex 2.315000 -0.990192 11.000000
endloop
endfacet
facet normal -0.866025 0.500000 0.000000
outer loop
vertex 2.015000 -1.509808 1.000000
vertex 2.315000 -0.990192 11.000000
vertex 2.315000 -0.990192 1.000000
endloop
endfacet
facet normal 0.000000 0.000000 -1.000000
outer loop
vertex -2.500000 -2.500000 1.000000
vertex -2.315000 -0.990192 1.000000
vertex -2.015000 -1.509808 1.000000
endloop
endfacet
facet normal 0.000001 0.000000 1.000000
outer loop
vertex 2.500000 -2.500000 11.000000
vertex 3.500000 -0.900000 11.000000
vertex 2.315000 -0.990192 11.000000
endloop
endfacet
facet normal 0.000003 0.000000 1.000000
outer loop
vertex 2.500000 -2.500000 11.000000
vertex 2.315000 -0.990192 11.000000
vertex 2.015000 -1.509808 11.000000
endloop
endfacet
facet normal 0.857493 -0.514496 0.000000
outer loop
vertex 5.000000 -1.000000 0.000000
vertex 5.000000 -1.000000 11.000000
vertex 3.500000 -3.500000 11.000000
endloop
endfacet
facet normal 0.857493 -0.514496 0.000000
outer loop
vertex 5.000000 -1.000000 0.000000
vertex 3.500000 -3.500000 11.000000
vertex 3.500000 -3.500000 1.000000
endloop
endfacet
facet normal 0.554700 -0.832050 -0.000000
outer loop
vertex -1.000000 3.500000 11.000000
vertex -2.500000 2.500000 11.000000
vertex -2.500000 2.500000 1.000000
endloop
endfacet
facet normal 0.554700 -0.832050 0.000000
outer loop
vertex -1.000000 3.500000 11.000000
vertex -2.500000 2.500000 1.000000
vertex -1.000000 3.500000 0.000000
endloop
endfacet
facet normal 0.065233 -0.978492 -0.195699
outer loop
vertex -5.000000 -1.000000 0.000000
vertex -5.000000 -0.800000 -1.000000
vertex -3.500000 -0.900000 0.000000
endloop
endfacet
facet normal 0.337869 0.337869 -0.878458
outer loop
vertex -3.500000 3.500000 1.000000
vertex -2.500000 2.500000 1.000000
vertex -3.500000 0.900000 0.000000
endloop
endfacet
facet normal 0.023925 0.358876 -0.933078
outer loop
vertex -3.500000 3.500000 1.000000
vertex -3.500000 0.900000 0.000000
vertex -5.000000 1.000000 0.000000
endloop
endfacet
facet normal -0.898060 0.439873 0.000000
outer loop
vertex 2.015000 1.509808 1.000000
vertex 2.015000 1.509808 11.000000
vertex 2.500000 2.500000 11.000000
endloop
endfacet
facet normal -0.898060 0.439873 0.000000
outer loop
vertex 2.015000 1.509808 1.000000
vertex 2.500000 2.500000 11.000000
vertex 2.500000 2.500000 1.000000
endloop
endfacet
facet normal -0.000001 0.000000 1.000000
outer loop
vertex 2.500000 2.500000 11.000000
vertex 3.500000 0.900000 11.000000
vertex 5.000000 1.000000 11.000000
endloop
endfacet
facet normal 0.000000 0.000000 1.000000
outer loop
vertex 2.500000 2.500000 11.000000
vertex 5.000000 1.000000 11.000000
vertex 3.500000 3.500000 11.000000
endloop
endfacet
facet normal -0.075892 -0.997116 0.000000
outer loop
vertex 3.500000 0.900000 0.000000
vertex 3.500000 0.900000 11.000000
vertex 2.315000 0.990192 11.000000
endloop
endfacet
facet normal -0.075892 -0.997116 0.000000
outer loop
vertex 3.500000 0.900000 0.000000
vertex 2.315000 0.990192 11.000000
vertex 2.315000 0.990192 1.000000
endloop
endfacet
facet normal -0.866025 -0.500000 0.000000
outer loop
vertex 2.315000 0.990192 1.000000
vertex 2.315000 0.990192 11.000000
vertex 2.015000 1.509808 11.000000
endloop
endfacet
facet normal -0.866025 -0.500000 0.000000
outer loop
vertex 2.315000 0.990192 1.000000
vertex 2.015000 1.509808 11.000000
vertex 2.015000 1.509808 1.000000
endloop
endfacet
facet normal 0.639457 -0.078354 -0.764824
outer loop
vertex -3.500000 -0.900000 0.000000
vertex -2.315000 -0.990192 1.000000
vertex -2.500000 -2.500000 1.000000
endloop
endfacet
facet normal 0.000001 0.000000 1.000000
outer loop
vertex 3.500000 0.900000 11.000000
vertex 2.500000 2.500000 11.000000
vertex 2.015000 1.509808 11.000000
endloop
endfacet
facet normal 0.000000 0.000000 1.000000
outer loop
vertex 3.500000 0.900000 11.000000
vertex 2.015000 1.509808 11.000000
vertex 2.315000 0.990192 11.000000
endloop
endfacet
facet normal 0.857493 0.514496 0.000000
outer loop
vertex 3.500000 3.500000 1.000000
vertex 3.500000 3.500000 11.000000
vertex 5.000000 1.000000 11.000000
endloop
endfacet
facet normal 0.857493 0.514496 0.000000
outer loop
vertex 3.500000 3.500000 1.000000
vertex 5.000000 1.000000 11.000000
vertex 5.000000 1.000000 0.000000
endloop
endfacet
facet normal -0.235702 -0.235702 -0.942809
outer loop
vertex -2.500000 2.500000 1.000000
vertex -3.500000 3.500000 1.000000
vertex -1.000000 5.000000 0.000000
endloop
endfacet
facet normal -0.554700 0.000000 -0.832050
outer loop
vertex -2.500000 2.500000 1.000000
vertex -1.000000 5.000000 0.000000
vertex -1.000000 3.500000 0.000000
endloop
endfacet
facet normal 1.000000 0.000003 0.000000
outer loop
vertex 5.000000 -1.000000 11.000000
vertex 5.000000 -1.000000 0.000000
vertex 5.000000 -0.800000 -1.000000
endloop
endfacet
facet normal 1.000000 0.000000 0.000000
outer loop
vertex 5.000000 -1.000000 11.000000
vertex 5.000000 -0.800000 -1.000000
vertex 5.000000 -0.800000 11.000000
endloop
endfacet
facet normal -0.980581 0.000000 -0.196116
outer loop
vertex -1.000000 3.500000 0.000000
vertex -1.000000 5.000000 0.000000
vertex -0.800000 5.000000 -1.000000
endloop
endfacet
facet normal -0.554700 -0.832050 0.000000
outer loop
vertex 1.000000 3.500000 11.000000
vertex 1.000000 3.500000 0.000000
vertex 2.500000 2.500000 1.000000
endloop
endfacet
facet normal -0.554700 -0.832050 0.000000
outer loop
vertex 1.000000 3.500000 11.000000
vertex 2.500000 2.500000 1.000000
vertex 2.500000 2.500000 11.000000
endloop
endfacet
facet normal -1.000000 -0.000004 0.000000
outer loop
vertex -5.000000 1.000000 11.000000
vertex -5.000000 1.000000 0.000000
vertex -5.000000 0.800000 -1.000000
endloop
endfacet
facet normal -1.000000 0.000000 0.000000
outer loop
vertex -5.000000 1.000000 11.000000
vertex -5.000000 0.800000 -1.000000
vertex -5.000000 0.800000 11.000000
endloop
endfacet
facet normal -0.514496 -0.857493 0.000000
outer loop
vertex -3.500000 -3.500000 11.000000
vertex -3.500000 -3.500000 1.000000
vertex -1.000000 -5.000000 0.000000
endloop
endfacet
facet normal -0.514496 -0.857493 0.000000
outer loop
vertex -3.500000 -3.500000 11.000000
vertex -1.000000 -5.000000 0.000000
vertex -1.000000 -5.000000 11.000000
endloop
endfacet
facet normal 0.514496 -0.857493 0.000000
outer loop
vertex 1.000000 -5.000000 11.000000
vertex 1.000000 -5.000000 0.000000
vertex 3.500000 -3.500000 1.000000
endloop
endfacet
facet normal 0.514496 -0.857493 0.000000
outer loop
vertex 1.000000 -5.000000 11.000000
vertex 3.500000 -3.500000 1.000000
vertex 3.500000 -3.500000 11.000000
endloop
endfacet
facet normal 0.514496 0.857493 0.000000
outer loop
vertex 3.500000 3.500000 11.000000
vertex 3.500000 3.500000 1.000000
vertex 1.000000 5.000000 0.000000
endloop
endfacet
facet normal 0.514496 0.857493 0.000000
outer loop
vertex 3.500000 3.500000 11.000000
vertex 1.000000 5.000000 0.000000
vertex 1.000000 5.000000 11.000000
endloop
endfacet
facet normal -0.514496 0.857493 0.000000
outer loop
vertex -1.000000 5.000000 11.000000
vertex -1.000000 5.000000 0.000000
vertex -3.500000 3.500000 1.000000
endloop
endfacet
facet normal -0.514496 0.857493 0.000000
outer loop
vertex -1.000000 5.000000 11.000000
vertex -3.500000 3.500000 1.000000
vertex -3.500000 3.500000 11.000000
endloop
endfacet
facet normal 0.000000 0.000000 1.000000
outer loop
vertex -1.000000 -5.000000 11.000000
vertex -1.000000 -3.500000 11.000000
vertex -2.500000 -2.500000 11.000000
endloop
endfacet
facet normal 0.000000 0.000000 1.000000
outer loop
vertex -1.000000 -5.000000 11.000000
vertex -2.500000 -2.500000 11.000000
vertex -3.500000 -3.500000 11.000000
endloop
endfacet
facet normal 0.000000 0.000000 1.000000
outer loop
vertex 1.000000 -5.000000 11.000000
vertex 3.500000 -3.500000 11.000000
vertex 2.500000 -2.500000 11.000000
endloop
endfacet
facet normal 0.000000 0.000000 1.000000
outer loop
vertex 1.000000 -5.000000 11.000000
vertex 2.500000 -2.500000 11.000000
vertex 1.000000 -3.500000 11.000000
endloop
endfacet
facet normal 0.000000 0.000000 1.000000
outer loop
vertex 5.000000 0.800000 11.000000
vertex 5.000000 1.000000 11.000000
vertex 3.500000 0.900000 11.000000
endloop
endfacet
facet normal -0.000001 0.000000 1.000000
outer loop
vertex 3.500000 0.900000 11.000000
vertex 3.500000 -0.900000 11.000000
vertex 5.000000 -1.000000 11.000000
endloop
endfacet
facet normal 0.000001 0.000000 1.000000
outer loop
vertex 5.000000 -0.800000 11.000000
vertex 5.000000 0.800000 11.000000
vertex 3.500000 0.900000 11.000000
endloop
endfacet
facet normal 0.000002 0.000000 1.000000
outer loop
vertex 3.500000 0.900000 11.000000
vertex 5.000000 -1.000000 11.000000
vertex 5.000000 -0.800000 11.000000
endloop
endfacet
facet normal 0.000000 0.000000 1.000000
outer loop
vertex 1.000000 5.000000 11.000000
vertex 1.000000 3.500000 11.000000
vertex 2.500000 2.500000 11.000000
endloop
endfacet
facet normal 0.000000 0.000000 1.000000
outer loop
vertex 1.000000 5.000000 11.000000
vertex 2.500000 2.500000 11.000000
vertex 3.500000 3.500000 11.000000
endloop
endfacet
facet normal 0.000000 0.000000 1.000000
outer loop
vertex -1.000000 5.000000 11.000000
vertex -3.500000 3.500000 11.000000
vertex -2.500000 2.500000 11.000000
endloop
endfacet
facet normal 0.000000 0.000000 1.000000
outer loop
vertex -1.000000 5.000000 11.000000
vertex -2.500000 2.500000 11.000000
vertex -1.000000 3.500000 11.000000
endloop
endfacet
facet normal 0.000000 0.000000 1.000000
outer loop
vertex -3.500000 0.900000 11.000000
vertex -5.000000 1.000000 11.000000
vertex -5.000000 0.800000 11.000000
endloop
endfacet
facet normal 0.000000 0.000000 1.000000
outer loop
vertex -5.000000 -0.800000 11.000000
vertex -5.000000 -1.000000 11.000000
vertex -3.500000 -0.900000 11.000000
endloop
endfacet
facet normal -0.000002 0.000000 1.000000
outer loop
vertex -3.500000 0.900000 11.000000
vertex -5.000000 0.800000 11.000000
vertex -5.000000 -0.800000 11.000000
endloop
endfacet
facet normal 0.000000 0.000000 1.000000
outer loop
vertex -5.000000 -0.800000 11.000000
vertex -3.500000 -0.900000 11.000000
vertex -3.500000 0.900000 11.000000
endloop
endfacet
facet normal -1.000000 0.000000 0.000000
outer loop
vertex -0.800000 -5.000000 11.000000
vertex -0.800000 -5.000000 -1.000000
vertex -0.800000 -6.000000 -1.000000
endloop
endfacet
facet normal -1.000000 0.000000 0.000000
outer loop
vertex -0.800000 -5.000000 11.000000
vertex -0.800000 -6.000000 -1.000000
vertex -0.800000 -6.000000 11.000000
endloop
endfacet
facet normal 0.000000 -1.000000 0.000000
outer loop
vertex -0.800000 -5.000000 -1.000000
vertex -0.800000 -5.000000 11.000000
vertex -1.000000 -5.000000 11.000000
endloop
endfacet
facet normal 0.000000 -1.000000 0.000000
outer loop
vertex -0.800000 -5.000000 -1.000000
vertex -1.000000 -5.000000 11.000000
vertex -1.000000 -5.000000 0.000000
endloop
endfacet
facet normal 0.000000 -1.000000 0.000000
outer loop
vertex 0.800000 -6.000000 -1.000000
vertex 0.800000 -6.000000 11.000000
vertex -0.800000 -6.000000 11.000000
endloop
endfacet
facet normal 0.000000 -1.000000 0.000000
outer loop
vertex 0.800000 -6.000000 -1.000000
vertex -0.800000 -6.000000 11.000000
vertex -0.800000 -6.000000 -1.000000
endloop
endfacet
facet normal 0.000000 0.000000 1.000000
outer loop
vertex 0.800000 -5.000000 11.000000
vertex -0.800000 -5.000000 11.000000
vertex -0.800000 -6.000000 11.000000
endloop
endfacet
facet normal 0.000000 0.000000 1.000000
outer loop
vertex 0.800000 -5.000000 11.000000
vertex -0.800000 -6.000000 11.000000
vertex 0.800000 -6.000000 11.000000
endloop
endfacet
facet normal 0.000000 -0.000000 -1.000000
outer loop
vertex -0.800000 -5.000000 -1.000000
vertex 0.800000 -5.000000 -1.000000
vertex 0.800000 -6.000000 -1.000000
endloop
endfacet
facet normal 0.000000 -0.000000 -1.000000
outer loop
vertex -0.800000 -5.000000 -1.000000
vertex 0.800000 -6.000000 -1.000000
vertex -0.800000 -6.000000 -1.000000
endloop
endfacet
facet normal 1.000000 0.000000 0.000000
outer loop
vertex 0.800000 -5.000000 -1.000000
vertex 0.800000 -5.000000 11.000000
vertex 0.800000 -6.000000 11.000000
endloop
endfacet
facet normal 1.000000 0.000000 0.000000
outer loop
vertex 0.800000 -5.000000 -1.000000
vertex 0.800000 -6.000000 11.000000
vertex 0.800000 -6.000000 -1.000000
endloop
endfacet
facet normal 0.000000 1.000000 0.000000
outer loop
vertex -0.800000 6.000000 -1.000000
vertex -0.800000 6.000000 11.000000
vertex 0.800000 6.000000 11.000000
endloop
endfacet
facet normal 0.000000 1.000000 0.000000
outer loop
vertex -0.800000 6.000000 -1.000000
vertex 0.800000 6.000000 11.000000
vertex 0.800000 6.000000 -1.000000
endloop
endfacet
facet normal 0.000000 0.000000 -1.000000
outer loop
vertex 0.800000 5.000000 -1.000000
vertex -0.800000 5.000000 -1.000000
vertex -0.800000 6.000000 -1.000000
endloop
endfacet
facet normal 0.000000 0.000000 -1.000000
outer loop
vertex 0.800000 5.000000 -1.000000
vertex -0.800000 6.000000 -1.000000
vertex 0.800000 6.000000 -1.000000
endloop
endfacet
facet normal 0.000000 1.000000 0.000000
outer loop
vertex 0.800000 5.000000 -1.000000
vertex 0.800000 5.000000 11.000000
vertex 1.000000 5.000000 11.000000
endloop
endfacet
facet normal 0.000000 1.000000 0.000000
outer loop
vertex 0.800000 5.000000 -1.000000
vertex 1.000000 5.000000 11.000000
vertex 1.000000 5.000000 0.000000
endloop
endfacet
facet normal -1.000000 0.000000 0.000000
outer loop
vertex -0.800000 5.000000 -1.000000
vertex -0.800000 5.000000 11.000000
vertex -0.800000 6.000000 11.000000
endloop
endfacet
facet normal -1.000000 0.000000 0.000000
outer loop
vertex -0.800000 5.000000 -1.000000
vertex -0.800000 6.000000 11.000000
vertex -0.800000 6.000000 -1.000000
endloop
endfacet
facet normal 1.000000 0.000000 0.000000
outer loop
vertex 0.800000 5.000000 11.000000
vertex 0.800000 5.000000 -1.000000
vertex 0.800000 6.000000 -1.000000
endloop
endfacet
facet normal 1.000000 0.000000 0.000000
outer loop
vertex 0.800000 5.000000 11.000000
vertex 0.800000 6.000000 -1.000000
vertex 0.800000 6.000000 11.000000
endloop
endfacet
facet normal 0.000000 0.000000 1.000000
outer loop
vertex -0.800000 5.000000 11.000000
vertex 0.800000 5.000000 11.000000
vertex 0.800000 6.000000 11.000000
endloop
endfacet
facet normal 0.000000 0.000000 1.000000
outer loop
vertex -0.800000 5.000000 11.000000
vertex 0.800000 6.000000 11.000000
vertex -0.800000 6.000000 11.000000
endloop
endfacet
facet normal 1.000000 0.000000 0.000000
outer loop
vertex 6.000000 -0.800000 11.000000
vertex 6.000000 -0.800000 -1.000000
vertex 6.000000 0.800000 -1.000000
endloop
endfacet
facet normal 1.000000 0.000000 0.000000
outer loop
vertex 6.000000 -0.800000 11.000000
vertex 6.000000 0.800000 -1.000000
vertex 6.000000 0.800000 11.000000
endloop
endfacet
facet normal 0.000000 1.000000 0.000000
outer loop
vertex 5.000000 0.800000 -1.000000
vertex 5.000000 0.800000 11.000000
vertex 6.000000 0.800000 11.000000
endloop
endfacet
facet normal 0.000000 1.000000 0.000000
outer loop
vertex 5.000000 0.800000 -1.000000
vertex 6.000000 0.800000 11.000000
vertex 6.000000 0.800000 -1.000000
endloop
endfacet
facet normal 1.000000 -0.000003 0.000000
outer loop
vertex 5.000000 0.800000 11.000000
vertex 5.000000 0.800000 -1.000000
vertex 5.000000 1.000000 0.000000
endloop
endfacet
facet normal 1.000000 0.000000 0.000000
outer loop
vertex 5.000000 0.800000 11.000000
vertex 5.000000 1.000000 0.000000
vertex 5.000000 1.000000 11.000000
endloop
endfacet
facet normal 0.000000 0.000000 -1.000000
outer loop
vertex 5.000000 -0.800000 -1.000000
vertex 5.000000 0.800000 -1.000000
vertex 6.000000 0.800000 -1.000000
endloop
endfacet
facet normal 0.000000 0.000000 -1.000000
outer loop
vertex 5.000000 -0.800000 -1.000000
vertex 6.000000 0.800000 -1.000000
vertex 6.000000 -0.800000 -1.000000
endloop
endfacet
facet normal 0.000000 0.000000 1.000000
outer loop
vertex 5.000000 0.800000 11.000000
vertex 5.000000 -0.800000 11.000000
vertex 6.000000 -0.800000 11.000000
endloop
endfacet
facet normal 0.000000 0.000000 1.000000
outer loop
vertex 5.000000 0.800000 11.000000
vertex 6.000000 -0.800000 11.000000
vertex 6.000000 0.800000 11.000000
endloop
endfacet
facet normal 0.000000 -1.000000 0.000000
outer loop
vertex 5.000000 -0.800000 11.000000
vertex 5.000000 -0.800000 -1.000000
vertex 6.000000 -0.800000 -1.000000
endloop
endfacet
facet normal 0.000000 -1.000000 0.000000
outer loop
vertex 5.000000 -0.800000 11.000000
vertex 6.000000 -0.800000 -1.000000
vertex 6.000000 -0.800000 11.000000
endloop
endfacet
facet normal -1.000000 0.000000 0.000000
outer loop
vertex -6.000000 0.800000 11.000000
vertex -6.000000 0.800000 -1.000000
vertex -6.000000 -0.800000 -1.000000
endloop
endfacet
facet normal -1.000000 0.000000 0.000000
outer loop
vertex -6.000000 0.800000 11.000000
vertex -6.000000 -0.800000 -1.000000
vertex -6.000000 -0.800000 11.000000
endloop
endfacet
facet normal -1.000000 0.000004 0.000000
outer loop
vertex -5.000000 -0.800000 11.000000
vertex -5.000000 -0.800000 -1.000000
vertex -5.000000 -1.000000 0.000000
endloop
endfacet
facet normal -1.000000 0.000000 0.000000
outer loop
vertex -5.000000 -0.800000 11.000000
vertex -5.000000 -1.000000 0.000000
vertex -5.000000 -1.000000 11.000000
endloop
endfacet
facet normal 0.000000 0.000000 -1.000000
outer loop
vertex -5.000000 0.800000 -1.000000
vertex -5.000000 -0.800000 -1.000000
vertex -6.000000 -0.800000 -1.000000
endloop
endfacet
facet normal -0.000000 0.000000 -1.000000
outer loop
vertex -5.000000 0.800000 -1.000000
vertex -6.000000 -0.800000 -1.000000
vertex -6.000000 0.800000 -1.000000
endloop
endfacet
facet normal 0.000000 -1.000000 0.000000
outer loop
vertex -5.000000 -0.800000 -1.000000
vertex -5.000000 -0.800000 11.000000
vertex -6.000000 -0.800000 11.000000
endloop
endfacet
facet normal 0.000000 -1.000000 0.000000
outer loop
vertex -5.000000 -0.800000 -1.000000
vertex -6.000000 -0.800000 11.000000
vertex -6.000000 -0.800000 -1.000000
endloop
endfacet
facet normal 0.000000 0.000000 1.000000
outer loop
vertex -5.000000 -0.800000 11.000000
vertex -5.000000 0.800000 11.000000
vertex -6.000000 0.800000 11.000000
endloop
endfacet
facet normal 0.000000 0.000000 1.000000
outer loop
vertex -5.000000 -0.800000 11.000000
vertex -6.000000 0.800000 11.000000
vertex -6.000000 -0.800000 11.000000
endloop
endfacet
facet normal 0.000000 1.000000 0.000000
outer loop
vertex -5.000000 0.800000 11.000000
vertex -5.000000 0.800000 -1.000000
vertex -6.000000 0.800000 -1.000000
endloop
endfacet
facet normal 0.000000 1.000000 0.000000
outer loop
vertex -5.000000 0.800000 11.000000
vertex -6.000000 0.800000 -1.000000
vertex -6.000000 0.800000 11.000000
endloop
endfacet
facet normal 0.000000 0.000000 -1.000000
outer loop
vertex 2.015000 -1.509808 1.000000
vertex 2.315000 -0.990192 1.000000
vertex 2.500000 -2.500000 1.000000
endloop
endfacet
facet normal -0.639457 -0.078354 -0.764824
outer loop
vertex 3.500000 -0.900000 0.000000
vertex 2.500000 -2.500000 1.000000
vertex 2.315000 -0.990192 1.000000
endloop
endfacet
facet normal -0.639457 0.078354 -0.764824
outer loop
vertex 3.500000 0.900000 0.000000
vertex 2.315000 0.990192 1.000000
vertex 2.500000 2.500000 1.000000
endloop
endfacet
facet normal -0.000000 0.000000 -1.000000
outer loop
vertex 2.500000 2.500000 1.000000
vertex 2.315000 0.990192 1.000000
vertex 2.015000 1.509808 1.000000
endloop
endfacet
facet normal 0.980581 0.000000 -0.196116
outer loop
vertex 1.000000 5.000000 0.000000
vertex 1.000000 3.500000 0.000000
vertex 0.800000 5.000000 -1.000000
endloop
endfacet
facet normal 0.000000 -0.554700 -0.832050
outer loop
vertex 1.000000 3.500000 0.000000
vertex -1.000000 3.500000 0.000000
vertex -0.800000 5.000000 -1.000000
endloop
endfacet
facet normal 0.000000 -0.554700 -0.832050
outer loop
vertex 1.000000 3.500000 0.000000
vertex -0.800000 5.000000 -1.000000
vertex 0.800000 5.000000 -1.000000
endloop
endfacet
facet normal -0.554700 0.000000 -0.832050
outer loop
vertex 3.500000 0.900000 0.000000
vertex 5.000000 0.800000 -1.000000
vertex 5.000000 -0.800000 -1.000000
endloop
endfacet
facet normal -0.554700 0.000000 -0.832050
outer loop
vertex 3.500000 0.900000 0.000000
vertex 5.000000 -0.800000 -1.000000
vertex 3.500000 -0.900000 0.000000
endloop
endfacet
facet normal -0.065233 -0.978492 -0.195699
outer loop
vertex 3.500000 -0.900000 0.000000
vertex 5.000000 -0.800000 -1.000000
vertex 5.000000 -1.000000 0.000000
endloop
endfacet
facet normal -0.980581 0.000000 -0.196116
outer loop
vertex -1.000000 -5.000000 0.000000
vertex -1.000000 -3.500000 0.000000
vertex -0.800000 -5.000000 -1.000000
endloop
endfacet
facet normal 0.000000 0.554700 -0.832050
outer loop
vertex -1.000000 -3.500000 0.000000
vertex 1.000000 -3.500000 0.000000
vertex 0.800000 -5.000000 -1.000000
endloop
endfacet
facet normal 0.000000 0.554700 -0.832050
outer loop
vertex -1.000000 -3.500000 0.000000
vertex 0.800000 -5.000000 -1.000000
vertex -0.800000 -5.000000 -1.000000
endloop
endfacet
facet normal 0.065233 0.978492 -0.195699
outer loop
vertex -5.000000 1.000000 0.000000
vertex -3.500000 0.900000 0.000000
vertex -5.000000 0.800000 -1.000000
endloop
endfacet
facet normal 0.554700 0.000000 -0.832050
outer loop
vertex -3.500000 0.900000 0.000000
vertex -3.500000 -0.900000 0.000000
vertex -5.000000 -0.800000 -1.000000
endloop
endfacet
facet normal 0.554700 0.000000 -0.832050
outer loop
vertex -3.500000 0.900000 0.000000
vertex -5.000000 -0.800000 -1.000000
vertex -5.000000 0.800000 -1.000000
endloop
endfacet
endsolid Exported from Blender-2.93.1
